<?xml version="1.0" standalone="no"?>
<!DOCTYPE svg PUBLIC "-//W3C//DTD SVG 20010904//EN"
 "http://www.w3.org/TR/2001/REC-SVG-20010904/DTD/svg10.dtd">
<svg version="1.0" xmlns="http://www.w3.org/2000/svg"
 width="416.000000pt" height="416.000000pt" viewBox="0 0 416.000000 416.000000"
 preserveAspectRatio="xMidYMid meet">
<metadata>
Created by potrace 1.11, written by Peter Selinger 2001-2013
</metadata>
<g transform="translate(0.000000,416.000000) scale(0.100000,-0.100000)"
fill="#000000" stroke="none">
<path d="M2039 4136 c-2 -2 -31 -7 -64 -11 -87 -11 -85 -11 -150 -24 -372 -77
-712 -265 -975 -537 -240 -249 -391 -515 -475 -837 -52 -201 -60 -270 -60
-492 1 -198 8 -267 50 -440 67 -283 222 -586 402 -788 l34 -38 -361 -360
c-198 -198 -367 -374 -376 -391 -17 -32 -15 -89 4 -125 30 -55 110 -82 168
-58 18 7 192 173 397 378 l366 366 38 -30 c21 -16 45 -35 53 -42 42 -34 190
-123 280 -168 98 -48 328 -132 399 -144 19 -3 37 -7 40 -9 3 -2 26 -7 51 -10
25 -3 56 -8 70 -11 118 -24 432 -24 565 0 219 40 378 91 549 174 369 182 656
463 851 835 84 159 161 389 181 534 3 26 7 49 9 52 16 28 26 338 14 450 -14
129 -38 264 -59 335 -74 240 -148 396 -277 584 -182 264 -449 490 -747 630
-148 71 -353 134 -501 155 -23 4 -52 9 -65 12 -27 6 -405 15 -411 10z m467
-344 c501 -101 927 -433 1134 -887 34 -74 96 -251 104 -299 3 -16 10 -52 16
-80 41 -192 33 -437 -20 -664 -40 -168 -131 -367 -244 -532 -45 -66 -250 -283
-315 -334 -64 -50 -201 -132 -293 -176 -436 -208 -932 -207 -1363 1 -302 146
-547 380 -707 676 -61 112 -102 220 -138 358 -37 146 -45 211 -45 390 0 174
13 280 47 399 6 23 12 46 14 51 1 6 14 44 29 85 136 376 412 687 773 870 156
79 356 141 502 156 36 3 67 8 69 10 14 12 347 -6 437 -24z"/>
<path d="M1681 3089 c-369 -263 -561 -405 -557 -414 4 -11 42 -66 140 -202 1
-1 22 11 46 27 25 17 47 30 50 30 3 0 5 -298 5 -662 l0 -663 875 0 875 0 0
660 c1 721 -3 677 60 630 38 -29 28 -37 125 98 35 50 59 92 54 97 -5 5 -250
180 -544 390 -294 210 -542 389 -551 396 -15 13 -79 -30 -578 -387z m881 -661
c6 -19 3 -986 -3 -992 -5 -5 -219 -8 -505 -7 l-140 1 1 503 c1 276 3 503 4
505 0 1 145 2 320 2 246 0 320 -3 323 -12z"/>
</g>
</svg>
