<?xml version="1.0" encoding="UTF-8"?>
<!DOCTYPE svg PUBLIC "-//W3C//DTD SVG 1.1//EN" "http://www.w3.org/Graphics/SVG/1.1/DTD/svg11.dtd">
<!-- Creator: CorelDRAW X7 -->
<svg xmlns="http://www.w3.org/2000/svg" xml:space="preserve" width="195.814mm" height="125.815mm" version="1.1" style="shape-rendering:geometricPrecision; text-rendering:geometricPrecision; image-rendering:optimizeQuality; fill-rule:evenodd; clip-rule:evenodd"
viewBox="0 0 14773 9492"
 xmlns:xlink="http://www.w3.org/1999/xlink">
 <defs>
  <style type="text/css">
   <![CDATA[
    .fil0 {fill:url(#id0)}
    .fil1 {fill:url(#id1)}
   ]]>
  </style>
  <linearGradient id="id0" gradientUnits="userSpaceOnUse" x1="7386.66" y1="9492.17" x2="7386.66" y2="0">
   <stop offset="0" style="stop-opacity:1; stop-color:#0D375F"/>
   <stop offset="1" style="stop-opacity:1; stop-color:#0D375F"/>
  </linearGradient>
  <radialGradient id="id1" gradientUnits="userSpaceOnUse" gradientTransform="matrix(1 -0 -0 0.647646 0 1503)" cx="7365.77" cy="4264.22" r="3189.49" fx="7365.77" fy="4264.22">
   <stop offset="0" style="stop-opacity:1; stop-color:#25A9F9"/>
   <stop offset="1" style="stop-opacity:1; stop-color:#114D7C"/>
  </radialGradient>
 </defs>
 <g id="Layer_x0020_1">
  <metadata id="CorelCorpID_0Corel-Layer"/>
  <rect class="fil0" width="14773" height="9492"/>
  <path class="fil1" d="M5902 6562c-2,-8 -9,-8 -26,-10 -18,-1 -31,-5 -38,-12 -6,-6 -30,-26 -29,-35 1,-9 8,-14 4,-19 -4,-6 -3,-15 -3,-24 -1,-8 -26,-28 -21,-34 5,-6 36,-22 36,-35 1,-14 -9,-22 5,-29 13,-7 25,-19 26,-24 2,-5 -1,-25 -7,-31 -5,-7 -27,-18 -25,-29 2,-11 1,-21 12,-20 12,1 27,-10 31,-11 3,-2 -9,-30 5,-41 15,-11 34,-6 32,-23 -1,-18 -42,-27 -32,-32 11,-6 48,-6 54,-16 5,-10 1,-44 12,-48 10,-3 81,-6 84,-17 3,-11 23,-45 23,-45 0,0 -24,-25 -16,-31 8,-6 41,-9 43,-10 3,-1 26,-9 36,-22 11,-12 18,-28 26,-40 8,-12 18,-24 26,-31 7,-8 12,-29 16,-36 4,-7 21,-13 22,-19 1,-7 1,-13 2,-23 0,-11 -4,-48 8,-53 12,-4 25,-23 35,-30 10,-7 22,0 33,-7 12,-6 33,-14 42,-13 10,0 13,6 20,-2 8,-8 6,-6 13,-16 7,-10 0,-30 11,-38 12,-8 21,-13 21,-21 0,-8 1,-31 5,-38 4,-7 1,-106 6,-108 6,-2 15,-3 20,-10 5,-6 12,-26 18,-27 7,0 15,-12 18,-15 4,-4 14,-11 19,-15 4,-5 7,-1 6,-22 0,-20 0,-35 -3,-42 -3,-7 -24,-15 -36,-21 -11,-7 -14,-4 -26,-16 -12,-12 -20,-24 -35,-27 -15,-2 -60,4 -68,-2 -9,-6 -20,-17 -25,-11 -4,7 -8,11 -9,4 -1,-7 -3,-21 -6,-23 -4,-1 -30,-23 -38,-18 -8,6 -41,52 -46,43 -5,-9 19,-31 11,-38 -7,-8 -25,2 -31,7 -7,6 -27,11 -29,8 -3,-4 5,-18 12,-22 6,-3 22,-19 23,-27 0,-8 -16,-16 -20,-22 -3,-6 -13,-54 -24,-44 -12,10 -23,57 -32,52 -9,-5 -28,-21 -36,-14 -7,7 -8,24 -18,18 -10,-7 -23,-51 -22,-64 1,-14 7,-27 -4,-41 -12,-13 -76,-54 -63,-62 13,-9 19,-41 8,-34 -11,7 -35,22 -48,13 -13,-9 -27,-23 -36,-13 -10,10 -36,2 -31,1 5,0 -4,-13 -8,-14 -4,-1 -74,-4 -74,-4 0,0 -4,22 -8,18 -3,-5 -13,-28 -13,-28 0,0 -31,30 -42,27 -11,-3 -33,-6 -44,25 -11,31 -35,34 -39,28 -5,-5 -27,-13 -40,-15 -12,-2 -1,21 -28,9 -26,-13 -52,-22 -52,-34 0,-12 11,-66 9,-74 -2,-7 -65,-23 -81,-35 -16,-11 -30,-37 -23,-39 6,-2 39,-71 28,-80 -12,-10 -78,-2 -80,10 -2,12 -15,61 -30,61 -15,0 -97,9 -103,-62 -6,-71 -3,-76 3,-85 5,-9 14,-13 9,-18 -4,-5 -13,-34 -6,-44 8,-10 37,-22 39,-23 2,0 10,-18 22,-13 11,6 23,-2 36,1 13,3 30,15 44,12 13,-3 19,-8 22,-12 2,-3 7,-19 21,-14 14,5 18,-5 27,9 9,15 36,9 45,11 9,2 13,-2 20,5 6,8 18,13 19,23 1,11 -3,17 5,31 8,15 19,29 22,32 3,4 15,8 18,6 4,-3 8,-22 8,-35 0,-13 -5,-28 -7,-40 -1,-12 -19,-26 -19,-42 1,-16 4,-45 12,-50 8,-4 48,-44 62,-51 15,-6 42,-22 44,-29 2,-7 -10,-19 -9,-27 1,-9 10,-19 12,-28 2,-10 9,-18 14,-27 5,-8 13,-31 20,-36 8,-4 43,-15 49,-22 5,-8 30,-1 30,-11 0,-11 -30,-6 -24,-18 7,-12 23,-29 33,-41 10,-12 82,-52 78,-44 -5,7 -23,18 -21,32 2,14 0,25 13,21 13,-4 13,-14 40,-28 28,-14 43,-21 53,-27 10,-7 35,-9 29,-21 -7,-12 -14,-44 -23,-35 -8,8 -28,31 -28,31l-45 -22c0,0 -13,16 -13,-1 0,-17 10,-26 10,-26 0,0 12,13 13,-2 1,-15 0,-28 2,-34 2,-5 -68,-1 -65,-11 4,-11 61,-20 63,-14 2,6 9,12 17,20 8,8 32,16 28,5 -5,-12 -40,-37 -26,-33 14,4 39,14 48,6 10,-8 55,-56 58,-42 4,14 -39,95 -32,103 7,8 71,12 67,17 -3,5 -38,5 -20,19 18,14 26,21 34,8 8,-13 13,-25 18,-19 4,6 16,12 16,12 0,0 11,0 17,-10 5,-10 9,-18 4,-36 -5,-18 -47,-41 -61,-47 -14,-6 -22,-16 -16,-23 6,-6 16,-22 18,-27 2,-6 -12,-33 -12,-35 0,-2 19,-27 6,-39 -14,-11 -32,-29 -43,-22 -10,7 -59,36 -46,24 12,-11 56,-25 41,-42 -15,-17 -37,-15 -43,-27 -7,-12 -33,-50 -33,-50 0,0 11,-14 5,-22 -7,-8 -33,-74 -33,-74 0,0 -26,-56 -31,-39 -6,18 -43,92 -60,81 -16,-11 -33,-29 -32,-39 2,-10 5,-52 -5,-59 -10,-8 -49,-17 -51,-29 -1,-12 -21,-39 -27,-42 -5,-4 -28,-10 -29,-4 0,6 4,15 -5,12 -9,-4 -20,-11 -26,-10 -6,1 -27,-4 -32,9 -4,13 6,48 -2,58 -7,11 -6,12 0,22 5,10 8,18 4,27 -4,9 -42,6 -6,42 35,37 34,54 28,78 -7,23 -32,51 -40,57 -8,6 -18,11 -15,19 3,8 2,31 1,36 0,6 9,22 8,30 0,9 1,41 -15,38 -16,-4 -22,-19 -30,-31 -9,-12 -22,-14 -20,-22 2,-8 14,-7 8,-13 -6,-7 -11,-9 -8,-19 2,-11 17,-6 7,-22 -9,-15 -13,-30 -29,-30 -16,1 -69,-111 -81,-120 -12,-9 -56,-23 -71,-12 -15,12 -14,53 -23,43 -9,-9 -17,53 -31,46 -14,-6 -37,-78 -33,-101 4,-24 5,-60 24,-81 18,-20 71,-78 71,-78 0,0 -6,-11 4,-19 11,-8 11,-12 17,-16 7,-3 30,-9 32,-16 3,-7 19,-37 24,-26 4,10 -19,49 -14,54 5,5 30,1 36,14 6,13 3,21 17,5 14,-16 15,-57 28,-41 14,16 58,30 59,22 1,-7 -6,-20 -26,-42 -19,-22 -63,-36 -55,-45 8,-10 26,-8 28,-26 1,-18 4,-38 15,-40 11,-3 -1,-70 -1,-70 0,0 21,-46 7,-57 -14,-10 -63,-37 -58,-39 5,-2 78,-35 79,-14 1,21 28,33 28,17 0,-16 16,-46 32,-21 17,25 101,143 97,160 -4,17 9,25 9,25 0,0 73,4 64,17 -10,13 -19,32 -27,21 -9,-11 -24,-30 -41,-32 -16,-2 -25,0 -27,24 -2,25 25,32 -3,32 -27,0 -58,-17 -62,14 -4,31 -27,49 -17,56 10,8 67,-44 79,-26 11,19 24,20 24,32 0,12 19,10 22,18 4,7 17,37 27,41 11,4 24,-3 32,6 9,8 72,16 68,13 -5,-3 -73,-75 -60,-73 13,2 88,80 91,66 2,-14 -16,-36 -12,-38 5,-2 32,-11 27,-22 -6,-10 -48,-45 -58,-57 -9,-12 -33,-91 -17,-79 16,11 46,20 47,37 1,17 1,19 9,25 7,7 24,35 30,20 5,-15 3,-54 12,-64 9,-9 25,-17 17,-31 -9,-13 -46,-29 -54,-38 -7,-8 -74,-62 -82,-71 -7,-9 -15,-25 -8,-40 6,-15 43,-16 25,-29 -18,-13 -37,5 -37,5 0,0 -27,11 -17,-5 9,-16 32,-9 18,-22 -14,-13 -38,-15 -44,-11 -5,4 -40,-10 -24,-21 16,-10 26,-5 22,-17 -5,-13 -25,-57 -31,-22 -7,35 -19,24 -26,18 -6,-7 -18,-9 -21,-24 -3,-15 6,-27 -4,-36 -10,-9 -20,-24 -25,-27 -6,-3 -4,-11 2,-18 5,-7 -8,-38 -24,-39 -16,-1 -61,-3 -57,5 4,9 48,36 48,36 0,0 26,0 21,7 -5,8 -20,14 -22,27 -1,13 -6,41 -19,27 -13,-15 -16,-32 -19,-18 -4,14 -18,33 -19,25 -2,-9 12,-43 6,-53 -5,-10 -17,-67 -22,-69 -5,-1 -78,58 -71,69 8,12 25,31 21,37 -4,6 -12,10 -10,16 2,6 8,16 7,25 0,9 -2,36 -5,35 -2,-1 -24,-10 -25,-24 -1,-13 -18,-48 -20,-57 -2,-9 8,-13 8,-17 1,-3 -16,-16 -8,-23 8,-8 51,-64 45,-68 -6,-3 -73,7 -79,21 -5,14 -32,54 -32,81 0,27 1,57 12,65 11,7 59,12 47,17 -13,6 -55,11 -45,15 9,5 88,57 88,57 0,0 -6,37 -1,42 4,4 14,5 12,12 -2,6 -24,8 -27,19 -3,11 2,25 -7,36 -10,11 -9,23 -15,27 -7,3 -33,-31 -24,-45 9,-14 12,-28 10,-39 -1,-11 -35,-23 -37,-20 -2,2 0,59 -10,53 -10,-5 -15,-1 -13,-17 2,-16 8,-37 -2,-47 -10,-9 -47,-9 -39,-27 7,-18 11,-28 7,-34 -4,-7 -57,-60 -39,-86 19,-26 29,-23 19,-36 -10,-13 -50,-19 -14,-27 36,-7 22,3 36,13 13,9 15,-16 15,-22 0,-5 11,-43 16,-48 6,-4 32,-19 21,-30 -11,-12 -37,3 -48,-1 -11,-5 -20,-2 -26,1 -6,3 -38,13 -39,25 -1,11 10,12 7,27 -4,15 -5,37 -5,44 0,7 12,25 8,40 -4,15 -16,30 -17,35 -2,5 -18,4 -15,23 3,19 15,16 10,31 -6,15 -8,14 -8,23 0,8 54,38 52,47 -3,10 0,56 -11,68 -10,11 -32,19 -29,27 3,7 17,26 7,25 -10,-1 -25,-12 -25,-20 0,-7 15,-27 0,-36 -14,-9 -11,-17 -1,-17 9,0 17,-18 17,-35 0,-16 -19,-56 -33,-39 -14,17 -16,19 -16,19 0,0 -47,15 -24,37 24,23 32,13 32,18 0,5 19,2 10,8 -10,7 -30,12 -29,19 0,8 9,25 0,21 -8,-5 -82,-5 -95,-16 -13,-11 -49,-42 -56,-24 -8,17 -28,29 -22,38 7,9 21,28 16,34 -4,5 -13,38 -21,23 -9,-15 -20,-43 -34,-53 -14,-11 -21,-12 -21,-12l-19 10c0,0 -68,-1 -72,-3 -5,-2 -13,-9 -1,-14 12,-5 18,-20 18,-20 0,0 -11,-29 -31,-31 -21,-1 -31,9 -41,0 -9,-8 -87,-56 -97,-43 -9,13 -16,24 -22,19 -7,-5 -15,-56 -22,-45 -6,11 -22,46 -26,41 -4,-4 -29,-72 -39,-65 -11,6 -11,14 -5,22 6,9 6,16 -8,25 -13,8 -34,-21 -40,-5 -5,16 -12,12 -21,30 -10,18 -24,40 -24,40 0,0 -26,-8 -22,-17 4,-8 -6,-33 -15,-32 -9,0 -24,-1 -19,15 6,17 7,28 3,32 -4,5 -24,-7 -24,-7 0,0 -40,-42 -57,-45 -18,-3 -60,-11 -60,-11 0,0 -7,-28 -32,-19 -25,9 -24,18 -33,9 -8,-8 -21,-22 -26,-16 -5,7 -23,6 -23,6 0,0 -46,-28 -53,-24 -6,3 -16,20 -20,10 -3,-10 -8,-39 -27,-33 -18,7 -19,18 -19,23 0,4 1,7 -2,6 -4,-1 -6,-19 -5,-21 0,-3 -4,-11 -9,-12 -4,-1 -22,-19 -36,-11 -13,8 -44,32 -48,26 -3,-6 -5,-6 -8,-4 -3,3 -9,5 -11,8 -2,4 -24,24 -35,26 -11,2 -24,16 -29,29 -4,13 -19,40 -24,41 -5,1 -41,10 -45,16 -4,7 -12,20 -7,25 6,4 50,32 53,42 3,10 19,30 19,30 0,0 24,-5 24,5 0,11 5,14 6,19 1,6 3,33 -21,15 -24,-18 -27,-21 -27,-21 0,0 -27,26 -43,37 -16,11 -41,6 -36,14 5,8 26,18 27,23 1,6 1,17 12,24 10,7 47,12 53,13 5,1 21,-1 25,-7 3,-7 10,-19 12,-7 1,11 8,19 12,22 4,4 3,10 -4,13 -6,4 -28,8 -28,8 0,0 -6,28 -13,24 -7,-4 -16,-13 -22,-4 -7,9 -20,17 -16,25 4,8 -1,9 -5,14 -5,5 -15,-2 -15,24 1,26 10,45 18,51 9,5 10,12 27,28 18,16 34,-10 40,-3 5,8 -11,41 3,54 14,13 34,2 40,-3 5,-6 8,8 19,8 12,0 42,-26 37,-15 -6,11 -14,9 -11,21 2,11 5,13 5,13 0,0 -14,18 -18,25 -5,7 -77,54 -87,61 -11,8 -32,27 -37,30 -6,3 -20,1 -20,7 -1,7 2,11 -7,12 -10,1 -23,2 -26,7 -2,5 -11,10 -18,12 -8,2 -15,10 -19,17 -4,7 -32,-5 -28,12 4,17 9,18 13,12 4,-5 11,-18 18,-17 7,2 20,0 31,-10 11,-9 3,-26 20,-24 18,2 22,7 34,-7 12,-14 16,-21 30,-17 14,5 26,-7 26,-7 0,0 4,-29 24,-11 19,18 53,25 40,10 -13,-15 -34,-29 -26,-31 7,-2 32,1 35,-8 4,-10 52,-44 56,-58 3,-14 29,-43 33,-50 5,-6 28,-65 28,-65 0,0 45,-47 47,-34 2,14 1,18 -5,19 -6,0 -12,-5 -17,8 -6,13 -17,26 -14,34 3,8 -5,25 -10,28 -5,3 -6,32 -21,43 -15,10 -33,8 -31,20 1,11 23,12 14,22 -10,10 -10,21 -5,22 6,1 22,-15 22,-15 0,0 20,-10 25,-15 5,-6 5,-41 5,-41 0,0 -13,-22 14,-38 27,-16 34,-25 39,-26 5,-1 13,-22 22,-11 10,12 22,-15 15,-21 -6,-7 2,-34 15,-16 14,18 28,23 28,23 0,0 15,9 29,14 14,6 9,-15 44,5 34,20 43,26 58,38 16,13 44,0 45,31 2,31 2,48 16,58 14,11 63,58 78,69 15,11 39,0 47,24 7,25 37,64 37,64 0,0 10,15 0,41 -9,26 38,28 51,62 13,34 28,54 26,96 -2,41 -26,73 -24,101 2,28 36,75 49,105 13,30 31,71 47,81 17,10 49,12 56,26 8,13 25,38 27,47 1,9 2,29 10,39 8,11 25,8 28,19 3,11 2,20 2,20 0,0 -12,6 -7,13 4,8 23,10 31,17 7,7 19,21 19,34 -1,12 -2,13 6,19 9,7 19,2 27,10 8,8 13,-1 12,10 0,11 2,15 5,15 3,1 18,-3 16,-13 -3,-10 -8,-14 -19,-25 -11,-12 -21,-31 -23,-38 -1,-8 -7,-12 -8,-14 -2,-2 -49,-61 -50,-63 0,-3 -17,-28 -8,-33 8,-5 13,-12 21,0 7,11 1,11 10,21 9,9 -3,22 13,33 17,10 45,50 48,57 4,6 20,15 35,29 14,14 24,18 33,35 9,16 28,22 23,36 -5,14 -13,18 -10,23 3,6 21,26 42,40 20,14 72,29 91,37 20,9 57,38 64,27 8,-10 27,-28 34,-24 6,4 5,18 22,18 17,0 32,20 41,27 8,8 39,20 45,24 7,5 19,-20 33,12 14,31 18,34 28,48 10,14 57,42 60,47 3,5 27,23 46,15 19,-7 21,-24 37,-13 17,11 28,2 28,17 0,15 25,29 3,55 -21,26 -63,71 -68,86 -5,15 6,59 6,59 0,0 -30,30 -22,51 7,20 50,43 65,101 15,58 17,58 43,90 27,32 118,52 115,77 -4,24 -4,47 -1,63 3,15 4,15 2,21 -2,5 -7,21 -7,32 -1,11 -3,28 -5,32 -2,4 -7,57 -7,57 0,0 -26,-7 -23,5 2,11 19,9 20,18 2,8 -2,25 -3,29 0,3 -10,12 -11,15 -1,2 -1,25 2,33 2,8 4,12 1,17 -3,6 -2,19 -5,27 -3,8 -10,31 -20,50 -10,18 -16,25 -13,31 2,5 10,6 6,12 -4,6 -8,3 -6,10 3,7 8,18 9,25 1,8 -14,14 -14,22 0,7 -1,11 -1,32 0,20 3,39 -5,50 -7,12 -23,12 -15,30 9,19 10,23 6,27 -4,5 -8,-2 -8,12 0,14 9,7 1,21 -7,14 -28,17 -16,42 11,26 4,0 13,-14 8,-14 15,-12 11,5 -4,17 -13,18 -12,27 1,9 6,31 6,40 -1,9 -10,8 -10,22 0,14 4,18 5,24 0,6 -6,16 -6,20 -1,4 5,7 7,12 2,6 50,79 60,86 10,8 7,16 8,19 1,3 2,3 2,3 0,0 4,4 6,6 3,1 10,-1 26,6 17,7 27,4 39,12 13,9 18,23 23,15 4,-8 5,-13 10,-16 5,-3 18,-32 29,-31 11,0 12,3 17,5 4,1 10,1 15,-1 5,-2 5,-3 5,-3zm4869 -3365l0 0 19 -8 17 7 15 -14c0,0 20,-4 20,-9 1,-6 14,-20 -10,-23 -25,-3 -29,-21 -45,-4 -17,18 -26,20 -31,25 -4,5 -7,9 -2,14 4,4 11,10 11,10l6 2zm-671 -343l0 0 41 69c0,0 26,20 38,15 12,-5 22,-2 23,-15 0,-13 21,-22 -3,-30 -25,-7 -54,-21 -61,-22 -8,0 -18,-5 -22,-14 -4,-9 -9,-3 -9,-3 0,0 -7,0 -7,0zm-131 60l0 0 30 6c0,0 22,-24 27,-16 4,8 15,19 20,18 4,-2 24,-22 28,-32 4,-9 -20,-48 -29,-51 -8,-4 -38,-31 -42,-11 -4,20 -9,34 -16,24 -6,-11 -40,-35 -48,-27 -8,7 -24,28 -23,37 2,9 7,11 11,36 4,25 19,56 25,47 7,-9 11,-25 11,-25l6 -6zm19 63l0 0c0,0 0,-13 2,-16 2,-4 9,-10 12,-10 2,0 7,34 22,44 15,10 27,21 34,36 6,14 -18,17 -31,11 -12,-7 -19,-1 -41,-13 -21,-11 8,-8 10,-12 3,-4 -9,-25 -8,-40zm-799 -399l0 0c-7,17 -61,41 -31,72 30,31 53,-15 63,-10 11,5 51,-22 53,-30 2,-8 -27,-74 -27,-74 0,0 -18,-49 -28,-27 -11,21 -17,29 -24,34 -8,5 -10,12 -11,14 0,3 7,11 7,11l-2 10zm-153 -233l0 0 4 -17 16 -10c0,0 17,-14 23,-19 7,-5 16,0 19,5 3,6 24,39 32,46 9,8 -6,17 -6,17 0,0 -1,27 0,32 2,5 -6,8 -19,6 -12,-3 -23,11 -27,14 -3,2 -15,15 -15,21 -1,5 34,-11 43,-21 9,-11 19,1 26,6 6,5 -5,25 -6,43 -2,17 15,-26 23,-35 9,-8 17,10 31,33 13,23 -15,36 -15,36 0,0 5,54 2,62 -2,7 -52,-5 -52,-5 0,0 -46,-42 -69,-58 -23,-17 -4,-15 10,-27 14,-13 4,-22 3,-31 -2,-9 -15,18 -21,27 -6,10 -31,-1 -38,-30 -6,-29 35,-4 45,-4 10,-1 -20,-15 -31,-34 -12,-19 16,-33 22,-57zm-610 -120l0 0c5,11 19,6 19,4 0,-2 -5,-13 -10,-16 -5,-2 -15,-9 -17,-5 -3,4 1,13 1,13l7 4zm-1 74l0 0c-1,8 -5,14 6,31 11,17 9,20 20,4 11,-17 32,-7 26,-25 -6,-18 -9,-44 -12,-46 -3,-2 -19,5 -20,7 -1,1 -5,2 -6,5 -2,3 -12,16 -12,16l-2 8zm-216 104l0 0c1,11 13,28 32,10 19,-18 25,-18 34,-8 10,11 18,27 27,25 10,-2 55,-44 55,-36 0,8 -8,41 -15,46 -8,6 -27,5 -11,14 16,8 45,-19 39,-36 -6,-17 -10,-18 -5,-22 6,-4 23,-11 28,-10 5,1 20,-43 20,-43 0,0 -6,-54 -24,-36 -18,19 -27,62 -35,56 -8,-6 -36,3 -30,-12 7,-16 18,-37 12,-45 -5,-8 -16,-23 -7,-26 10,-3 33,-14 21,-20 -12,-5 -34,-2 -23,-10 10,-8 27,-14 25,-20 -2,-6 0,-36 -12,-25 -12,10 -21,34 -31,44 -10,9 -29,19 -24,36 5,16 42,10 26,21 -17,11 -30,15 -33,7 -4,-8 -8,-62 -24,-38 -16,24 -9,33 -3,43 5,9 34,-4 17,7 -17,11 -19,7 -12,16 8,8 29,17 27,21 -3,3 0,21 -16,9 -17,-12 -39,-5 -41,2 -2,7 2,9 0,13 -3,3 -10,1 -12,4 -1,2 -6,5 -6,6 1,2 1,7 1,7zm-155 -40l0 0c1,1 14,-21 15,-32 1,-10 43,-7 53,-9 10,-2 9,18 18,28 10,10 17,-18 21,-18 5,0 16,-4 15,-10 0,-7 -5,-10 17,-17 23,-8 -12,20 -11,25 1,6 16,19 27,29 11,9 -17,4 -25,11 -9,6 -13,6 -15,10 -1,4 -8,17 -22,26 -13,9 40,17 40,17 0,0 -35,29 -43,24 -8,-5 -35,-27 -40,-35 -5,-7 3,-23 7,-33 3,-10 -49,0 -57,-16zm-670 205l0 0c3,27 16,64 19,49 3,-14 6,-35 9,-25 2,11 12,26 20,26 9,0 51,-44 50,-26 -1,18 -23,21 -26,28 -4,8 -20,5 -17,27 2,21 35,3 28,22 -8,19 -40,21 -31,34 8,13 45,60 57,68 12,8 24,-12 26,-26 2,-14 49,-163 50,-148 1,15 12,34 9,42 -3,8 24,-5 13,19 -11,23 -21,30 -9,42 12,12 53,-23 50,-10 -2,14 -24,44 -14,42 11,-3 32,-32 35,-45 3,-13 19,-31 8,-38 -10,-6 -32,-2 -32,-11 0,-9 7,-19 0,-26 -8,-8 -17,-40 -28,-52 -12,-11 -43,-23 -34,-35 9,-12 21,-19 44,-16 22,3 48,6 58,-1 10,-7 49,-76 49,-76 0,0 31,-1 18,-16 -13,-15 -48,7 -58,-2 -9,-8 -29,-20 -40,-27 -11,-6 -32,-20 -34,0 -2,21 -14,20 -21,8 -8,-12 -3,-30 -18,-23 -15,8 -41,-15 -40,18 1,33 -6,39 5,50 12,10 59,13 43,29 -15,16 -21,50 -21,50 0,0 -11,-23 -21,-42 -9,-19 -28,-69 -36,-49 -9,21 -31,43 -28,47 3,5 -17,-18 -31,-21 -14,-3 -67,-12 -66,6 1,19 2,37 11,51 8,14 15,32 13,43 -2,11 -14,-11 -21,-3 -6,8 4,10 5,12 2,2 6,5 6,5zm-1784 1012l0 0c0,0 -1,-4 0,-5 0,-2 4,-5 5,-6 2,-1 5,-1 12,-3 6,-1 0,13 -5,18 -5,5 -8,2 -12,-4zm-42 60l0 0c0,0 3,-9 11,-17 8,-8 4,2 8,12 4,9 -6,14 -11,18 -6,4 -8,-5 -8,-13zm-85 -18l0 0c0,0 15,-7 17,-17 3,-10 15,-9 30,-5 15,4 -11,22 -18,28 -6,7 -21,18 -29,-6zm146 -266l0 0c0,0 1,-3 1,-4 1,-2 3,-2 4,0 2,1 0,9 3,1 3,-7 12,-8 21,-12 10,-4 18,21 15,35 -2,13 -17,21 -36,14 -19,-8 -11,-22 -8,-34zm-336 -800l0 0c25,32 59,21 41,42 -18,20 -38,-6 -16,19 21,26 45,16 46,7 1,-9 1,-48 11,-32 10,16 5,35 12,33 7,-2 7,-29 9,-35 1,-6 -4,-43 8,-39 11,3 27,-7 30,-9 3,-3 25,-18 27,-23 2,-5 -11,-23 -23,-24 -11,-2 -20,0 -21,-10 -2,-10 16,-19 4,-30 -13,-10 -41,-19 -40,-32 1,-14 4,-35 -7,-42 -11,-6 -36,-21 -36,-30 0,-9 -5,-54 -8,-56 -3,-2 -18,-25 -24,-19 -6,7 -26,0 -20,7 6,8 18,7 18,12 0,4 2,11 -7,20 -10,9 -23,20 -17,27 5,7 27,30 18,31 -9,1 -28,-10 -30,-6 -1,4 -7,5 -6,11 1,5 31,41 31,41 0,0 -1,9 -11,17 -10,8 -19,14 -20,4 -1,-10 -7,-23 -12,-14 -4,9 -4,16 -2,24 2,8 9,14 18,20 9,5 16,12 32,16 16,5 -25,0 -27,10 -2,9 18,20 24,18 6,-2 20,-18 24,-18 3,0 21,-3 18,10 -2,14 15,16 11,23 -4,6 -25,4 -31,6 -7,1 -33,14 -34,17 -2,4 10,4 10,4zm-83 334l0 0c9,-9 22,-49 16,-66 -6,-17 -11,-48 -24,-46 -13,3 -18,27 -27,10 -10,-17 -23,-34 -28,-19 -6,15 14,46 10,51 -4,4 -33,3 -40,-9 -8,-12 -10,-47 -22,-30 -12,17 -2,31 4,40 5,8 31,-7 27,13 -4,19 -7,26 -2,30 5,3 23,-16 31,-13 7,4 16,15 12,25 -4,9 -19,26 -9,35 9,10 25,14 33,6 9,-8 19,-27 19,-27zm28 -149l0 0c0,0 6,-3 7,-4 2,-1 10,0 10,0 0,0 12,2 19,2 8,1 17,9 28,24 11,16 6,15 6,15 0,0 38,-4 44,0 5,4 17,-9 22,-16 5,-8 24,-17 33,-26 9,-8 17,-5 24,-11 8,-6 -2,-9 -10,-19 -9,-9 -17,-8 -22,-37 -4,-29 8,-4 26,-9 18,-5 6,14 5,22 -1,9 20,23 38,35 19,11 24,-8 30,-14 5,-7 20,-23 19,-32 -1,-10 -30,15 -39,18 -9,2 -13,-18 -18,-31 -4,-12 10,-22 13,-39 4,-16 -16,2 -20,4 -4,2 -29,6 -37,-3 -9,-8 26,-34 38,-45 13,-10 26,0 35,9 8,9 20,-3 33,-4 12,-1 20,-12 17,-25 -2,-13 -19,1 -38,-18 -19,-19 -11,-21 -14,-40 -4,-19 -12,6 -25,-7 -12,-12 -12,-35 -18,-54 -7,-19 4,-12 7,-30 2,-18 3,-2 22,-1 20,2 36,55 40,69 4,15 23,15 35,22 12,6 6,-1 18,-16 12,-14 -17,-4 -23,-12 -6,-9 -7,-18 -10,-22 -4,-5 -20,-27 -27,-42 -7,-15 27,-9 31,-16 4,-8 22,-6 40,-8 18,-2 -13,-14 -6,-30 7,-15 47,-2 61,-15 13,-14 -32,-4 -47,-5 -14,-1 4,-16 17,-33 14,-16 10,-23 3,-36 -8,-13 -26,31 -29,56 -4,25 -37,46 -47,53 -11,7 -12,-1 -10,-19 3,-17 -32,29 -50,26 -19,-2 -20,-8 -27,-20 -8,-11 -6,7 -28,9 -21,2 -25,-19 -25,-30 1,-11 39,2 45,10 6,7 14,-4 17,-21 2,-17 19,-3 33,-6 14,-3 16,-10 11,-16 -5,-6 -50,17 -46,9 4,-7 20,-13 25,-29 5,-15 -20,18 -23,18 -3,0 -32,20 -40,13 -7,-7 -27,9 -37,4 -11,-6 -2,-13 -2,-30 0,-16 8,-12 12,-16 4,-4 10,-17 12,-28 2,-10 -23,13 -27,7 -4,-5 -5,-2 -9,-10 -5,-7 -20,9 -26,4 -6,-5 -8,-14 -4,-26 4,-12 28,-17 31,-19 4,-1 12,-11 20,-9 8,1 6,-16 19,-23 13,-6 7,9 10,15 4,7 22,5 29,2 8,-3 -16,-14 -22,-22 -6,-9 6,-12 15,-19 9,-8 7,-9 0,-21 -7,-11 11,-18 17,-18 5,0 14,18 19,32 4,14 21,14 30,21 8,7 14,10 26,26 11,16 14,-7 10,-17 -4,-9 -16,-17 -22,-22 -5,-5 -15,-17 -11,-20 5,-3 14,-21 14,-21 0,0 16,-1 25,-9 8,-7 1,-12 1,-12 0,0 18,-11 24,-17 5,-5 -9,-5 -19,-14 -10,-8 27,-21 27,-21 0,0 17,15 23,20 5,6 8,21 16,34 7,13 12,16 28,23 16,8 7,-8 8,-17 1,-10 -29,-34 -35,-38 -7,-4 -19,-19 -11,-31 9,-11 14,-3 32,-6 18,-3 15,0 16,11 1,11 19,33 33,51 14,19 13,-10 17,-15 3,-4 -20,-25 -18,-42 2,-16 6,0 19,-5 12,-6 13,19 18,24 6,5 13,3 13,-13 0,-16 17,-7 23,-7 5,1 31,5 67,12 37,6 -12,14 -25,31 -13,16 -17,12 -13,23 4,11 20,-1 35,-13 14,-12 42,-39 54,-39 12,-1 16,19 17,34 1,15 20,24 28,32 7,8 9,11 22,27 13,16 -25,52 -30,63 -4,11 -40,28 -45,28 -4,0 -7,12 -16,20 -8,7 -32,-1 -32,-1l-39 7 36 17c0,0 -50,24 -50,38 0,14 98,-54 114,-45 17,10 -61,74 -72,89 -10,15 -31,24 -34,40 -3,16 -8,20 -24,29 -16,8 -22,6 -32,23 -11,17 15,28 13,43 -2,15 -39,-21 -48,-22 -9,-1 8,16 12,27 4,10 -6,11 -22,29 -16,18 -22,3 -37,-11 -15,-14 -9,9 -14,14 -5,6 -2,11 1,20 3,10 -34,10 -10,24 23,15 10,-4 17,-11 6,-6 21,8 35,16 14,9 6,16 6,22 0,5 -13,10 -26,14 -12,3 16,1 17,22 1,22 -17,7 -31,10 -13,2 15,20 6,24 -9,4 -30,2 -40,3 -10,1 5,7 13,15 7,7 5,27 -18,33 -22,7 -16,7 -27,3 -11,-4 -12,-5 -17,-12 -5,-8 -14,14 -23,23 -10,10 11,9 18,4 6,-5 15,2 29,9 13,8 31,9 43,17 11,9 -5,16 -10,25 -4,8 -6,10 -16,26 -9,16 -22,1 -39,-10 -17,-12 -25,-9 -33,-5 -7,4 -6,5 -11,5 -5,0 -9,-5 -17,-14 -7,-8 -7,5 -10,14 -3,8 -23,9 -34,-11 -10,-19 -15,15 -30,17 -15,2 -26,-2 -35,-21 -10,-20 -17,15 -17,15 0,0 -16,10 -24,17 -9,8 26,13 19,14 -6,2 -6,13 11,28 18,16 27,26 27,26 0,0 4,-5 16,-15 11,-11 14,12 14,12 0,0 19,-2 39,-7 20,-4 12,-21 20,-28 7,-6 6,-1 13,12 6,12 23,-11 32,-13 10,-2 35,28 45,40 11,11 0,13 -11,24 -11,11 8,14 16,22 7,7 -16,29 -27,27 -11,-2 -39,0 -46,-11 -7,-10 -24,15 -33,6 -8,-9 -6,14 -39,9 -33,-4 -31,-6 -41,-17 -11,-10 -25,15 -32,6 -8,-8 -16,0 -31,-11 -15,-11 -12,-49 -12,-55 0,-7 10,-21 13,-27 3,-5 -21,-11 -22,-44 0,-34 -12,1 -19,4 -8,3 -9,13 -9,13 0,0 9,17 -1,38 -9,20 25,33 29,49 3,17 -2,28 -14,27 -11,0 -25,15 -37,1 -12,-13 -19,-13 -21,-34 -1,-22 9,-15 13,-23 3,-7 19,-29 22,-44 3,-15 -5,-14 -7,-22 -2,-9 -10,-16 -13,-24 -2,-8 -13,-19 -18,-27 -4,-9 -11,-15 -9,-22 2,-6 10,4 14,-2zm114 -41l0 0c-1,5 -5,23 -7,24 -2,2 2,15 9,11 7,-3 13,-7 17,-13 4,-6 -3,-21 -5,-24 -2,-3 -12,-14 -12,-9 -1,4 -2,11 -2,11zm-100 -9l0 0c1,5 30,19 35,15 5,-5 20,7 16,-12 -4,-18 -23,-17 -25,-17 -3,0 -12,-5 -17,1 -6,6 -9,13 -9,13zm-199 -23l0 0c-5,3 2,50 12,66 10,17 36,15 28,0 -7,-16 -24,-41 -27,-45 -3,-5 -13,-21 -13,-21zm124 -228l0 0c-5,14 17,60 21,43 4,-17 17,-35 8,-46 -8,-11 -8,-14 -15,-11 -6,2 -14,14 -14,14zm35 137l0 0c0,0 8,-6 37,6 29,12 21,27 32,47 12,19 -17,24 -22,29 -6,4 -11,18 -33,-4 -21,-23 2,-21 2,-31 0,-10 -18,-29 -16,-47zm-161 -55l0 0c0,0 4,-1 13,-7 10,-7 18,-5 25,-2 6,2 9,20 29,34 19,14 53,34 59,54 5,19 12,38 9,57 -3,18 -7,10 -24,3 -16,-8 -9,-14 -10,-23 -1,-8 -17,-13 -22,-20 -6,-6 -19,10 -27,9 -9,-1 -25,-9 -30,-21 -6,-12 9,-3 25,-17 16,-14 -9,-12 -15,-22 -6,-10 -38,-23 -32,-45zm-153 96l0 0c6,12 37,10 37,10 0,0 37,11 38,-1 0,-12 -8,-43 -18,-47 -11,-4 -6,8 -20,17 -14,8 -38,22 -37,21zm-35 48l0 0c-2,0 35,-10 46,-3 11,8 2,-2 31,-14 29,-12 35,-2 43,3 7,6 -21,17 -21,17 0,0 -22,49 -32,44 -9,-5 -35,-18 -34,-32 1,-14 -25,-9 -33,-15zm-124 172l0 0c-8,-2 -19,13 -28,6 -8,-8 -6,-41 -1,-43 6,-2 78,-71 85,-78 6,-6 30,-25 41,-30 11,-4 13,-24 16,-7 3,17 2,33 -1,37 -3,5 -17,19 -16,28 1,10 6,27 -5,39 -10,12 -14,31 -21,22 -8,-8 -6,-47 -15,-33 -10,14 -16,26 -24,43 -7,16 -12,37 -20,36 -9,-1 -1,-23 -1,-23 0,0 -10,4 -10,3zm53 38l0 0c6,-4 20,-10 18,-26 -2,-17 1,-32 -5,-25 -6,8 -23,24 -26,28 -3,5 4,24 4,24 0,0 11,-2 9,-1zm26 13l0 0c4,8 43,25 49,20 5,-4 27,-30 30,-23 3,8 23,9 30,10 6,2 26,1 20,7 -5,6 -33,2 -38,13 -6,11 -38,22 -36,27 3,6 23,14 35,13 12,-1 21,9 40,-13 20,-21 33,-45 43,-37 11,7 10,20 18,15 8,-6 23,-1 23,-1 0,0 7,12 12,0 4,-12 12,-30 12,-30 0,0 14,-13 7,-33 -6,-20 -7,-50 -23,-30 -16,20 -15,18 -21,9 -5,-10 -22,-29 -18,-36 3,-8 9,-22 0,-31 -10,-9 -11,-5 -26,5 -15,9 -11,26 -11,26 0,0 14,21 14,28 0,8 -12,10 -6,17 5,6 17,1 15,11 -3,10 -9,35 -17,26 -9,-8 -32,-23 -36,-28 -4,-4 -5,-30 -21,-38 -16,-9 -28,-42 -42,-25 -13,16 -21,20 -21,28 0,7 -30,-2 -17,17 13,20 37,23 26,27 -10,3 -22,12 -29,12 -6,0 -11,16 -12,14zm300 178l0 0 3 -7c0,0 23,11 30,19 8,7 17,-11 17,-17 0,-6 -19,-26 -21,-36 -1,-11 12,-10 19,-25 8,-15 11,3 23,16 12,13 13,-29 25,-36 12,-8 8,20 9,26 1,5 -8,35 -16,47 -7,11 21,19 31,36 11,17 -8,51 -11,57 -3,7 -23,26 -31,26 -7,0 -8,-17 -13,-32 -5,-15 -60,-57 -65,-74zm-335 26l0 0c0,0 -17,13 -22,20 -5,8 -7,32 -8,41 -1,8 -19,3 -19,3 0,0 -21,33 -26,34 -6,1 -11,-12 -11,-21 0,-10 -14,-16 -33,-30 -20,-14 -14,-24 -17,-33 -3,-9 13,-32 21,-42 9,-10 2,-27 1,-36 -1,-8 11,-14 20,-34 9,-21 -19,-14 -20,-30 -1,-16 30,-11 37,-12 6,0 6,-4 29,-6 22,-2 33,39 33,39 0,0 12,1 27,-10 15,-11 -1,-9 31,11 31,21 32,33 30,46 -1,13 -65,48 -73,60zm253 -82l0 0c0,0 8,-2 20,-6 12,-4 19,-7 28,12 9,19 0,16 -6,29 -5,13 -43,-26 -42,-35zm91 291l0 0c0,0 -12,9 -18,8 -5,-1 -35,-7 -55,-22 -20,-16 -23,0 -38,14 -15,14 -43,16 -54,22 -11,6 -56,3 -56,3 0,0 -4,-24 -6,-39 -1,-14 -46,-1 -59,-8 -14,-6 -22,-22 -26,-37 -3,-15 41,-6 68,-13 26,-6 43,8 53,-1 10,-10 -1,-15 -28,-20 -27,-5 -67,10 -77,13 -10,3 -31,-16 -32,-40 -1,-25 35,-2 35,-2 0,0 24,-21 22,-33 -3,-12 -21,19 -30,21 -10,2 -42,-22 -48,-35 -7,-13 31,-21 31,-21 0,0 2,-12 0,-27 -2,-15 59,-36 68,-41 9,-4 1,27 6,41 4,14 37,-30 45,-24 7,6 1,38 13,52 11,14 30,-34 45,-34 15,0 5,47 8,62 3,15 32,-3 38,-9 7,-5 -6,-24 -16,-36 -9,-12 -3,-29 -2,-44 1,-15 46,9 46,9 0,0 0,32 3,38 4,5 16,59 19,73 3,13 64,69 66,80 3,11 -34,7 -44,13 -9,7 15,24 23,37zm601 1532l0 0c0,0 9,6 14,-1 6,-7 10,-6 24,-6 15,0 43,25 46,28 3,3 -34,10 -43,8 -9,-2 -9,9 -11,13 -1,4 -22,-3 -33,-7 -11,-5 -25,2 -37,-11 -12,-14 33,-19 40,-24zm-235 -58l0 0c4,-4 44,-36 57,-24 12,12 42,8 51,11 10,4 56,22 64,34 7,12 25,21 12,27 -13,6 -47,9 -61,-4 -14,-14 -34,-29 -48,-30 -13,-1 -44,-9 -48,-5 -4,4 8,10 -5,9 -14,-2 -22,-6 -25,-8 -3,-2 3,-8 3,-10zm1734 -407l0 0c0,0 -21,13 -23,16 -1,4 3,15 7,12 3,-3 10,-15 13,-16 3,-1 6,-4 16,-1 10,3 11,-5 16,-10 5,-4 24,-1 12,-13 -12,-12 -19,-14 -23,-8 -4,7 -14,20 -14,20l-4 0zm131 -89l0 0c-7,12 -10,19 -4,28 6,10 8,19 1,23 -6,3 -23,2 -18,10 5,9 16,16 12,25 -4,9 4,24 4,24 0,0 28,14 26,-5 -2,-19 2,-41 0,-45 -3,-4 -12,-6 -6,-23 6,-17 4,-28 0,-33 -5,-5 -14,-3 -15,-4zm1441 760l0 0c-3,5 -19,31 -15,40 3,8 10,31 20,38 10,7 24,-9 24,-12 1,-2 12,-13 8,-19 -3,-6 -12,-19 -15,-26 -4,-6 -16,-19 -16,-19 0,0 -7,-3 -6,-2zm1003 -477l0 0c10,21 23,-6 36,-17 13,-10 55,-18 60,-18 4,0 25,-9 37,-21 12,-12 2,-73 16,-64 14,10 20,13 39,5 20,-8 27,-35 36,-45 9,-10 55,-31 36,-48 -20,-17 -34,-31 -25,-39 10,-8 50,-34 57,-39 8,-6 112,-94 96,-84 -17,11 -90,62 -94,53 -4,-10 -34,-1 -40,-12 -7,-12 -23,-33 -18,-33 5,0 0,-26 6,-23 5,2 26,1 18,-14 -7,-15 -35,-17 -16,-35 18,-18 45,-19 34,-40 -11,-22 -27,-175 -36,-152 -10,23 -22,55 -21,60 1,5 -6,10 1,22 8,13 6,39 6,45 0,7 0,57 2,62 1,5 -12,24 -13,32 0,7 -8,20 -6,27 2,7 16,16 6,19 -11,3 -29,-3 -22,13 7,16 36,1 24,31 -12,30 -28,38 -39,40 -11,2 -32,-20 -25,6 6,27 29,16 30,32 1,16 6,31 2,46 -5,15 -26,15 -31,29 -6,14 -26,9 -39,24 -12,15 -12,27 -24,35 -12,7 -20,13 -23,2 -2,-10 9,-35 -16,-13 -24,22 -22,38 -28,46 -6,9 -21,3 -29,12 -9,9 -16,33 -12,43 5,10 6,19 1,23 -4,5 7,3 8,5 2,2 6,-6 4,-8 -3,-2 2,-7 2,-7zm-212 182l0 0c0,13 16,44 22,36 6,-9 13,-38 22,-49 9,-11 12,-14 7,-20 -4,-5 -16,-14 -24,-6 -9,9 -12,18 -18,23 -5,4 -9,16 -9,16zm60 320l0 0c4,11 35,44 48,55 12,11 43,-40 35,-55 -8,-15 -3,-43 -17,-32 -14,11 -28,21 -26,32 2,10 -19,3 -25,-1 -7,-5 -10,-11 -12,-8 -2,2 -4,3 -4,4 0,1 1,5 1,5zm-69 -180l0 0c-6,16 22,78 24,82 2,4 25,-6 29,-16 4,-9 -5,-25 5,-40 11,-15 3,-52 -4,-51 -7,1 -26,-9 -29,7 -3,17 -6,7 -8,10 -3,2 -7,3 -9,4 -2,2 -8,4 -8,4zm-51 391l0 0c10,-17 17,-67 29,-65 12,2 11,-9 -1,-27 -12,-19 -13,-45 4,-40 17,6 34,-26 22,-26 -12,0 -49,-25 -56,-18 -6,8 -47,56 -55,70 -9,13 19,39 -17,39 -35,0 -63,13 -64,4 -1,-10 -34,-57 -34,-21 0,36 22,50 28,61 5,11 34,39 44,46 10,6 28,-12 50,7 23,19 45,-1 45,-1 0,0 3,-28 5,-29zm121 27l0 0c0,0 -16,7 -24,17 -7,10 -22,20 -24,15 -2,-5 -14,-6 -26,-26 -12,-20 -16,-39 3,-69 18,-30 42,-31 42,-31 0,0 35,4 47,-1 13,-6 30,-16 35,-12 5,3 -32,32 -46,32 -14,0 -36,20 -43,29 -6,8 27,35 36,46zm312 59l0 0c13,31 26,36 35,42 9,7 32,28 49,15 18,-13 52,-25 59,-15 8,11 51,33 65,40 14,6 35,5 38,-3 4,-9 17,-38 8,-34 -9,5 -23,12 -32,4 -9,-8 -21,-10 -47,-31 -26,-21 -17,-30 -29,-44 -12,-14 -34,-39 -56,-42 -21,-3 -44,-2 -64,-13 -19,-11 -46,-22 -57,-21 -10,1 -25,-23 -27,-14 -2,10 8,23 6,30 -2,8 -19,-5 -25,-12 -7,-7 -23,-31 -33,-22 -10,10 -28,-12 -23,14 6,25 16,44 25,54 8,10 45,5 56,13 11,8 36,33 36,33l16 6zm-3669 -1632l0 0c0,1 -10,5 -10,5 0,0 -12,-15 -17,-30 -5,-16 -14,-1 -19,-13 -6,-11 -34,10 -39,-3 -5,-12 10,-2 14,-20 5,-19 -68,-93 -77,-110 -10,-16 -6,-22 28,-31 33,-10 -17,-19 -25,-29 -7,-9 -33,-37 -33,-48 0,-12 -23,-56 -19,-68 4,-11 9,-37 24,-48 15,-12 28,-25 28,-45 0,-21 13,-27 13,-42 0,-15 -3,-13 -24,-20 -21,-8 0,28 0,28l-26 39c0,0 -34,-45 -36,-58 -2,-13 40,-2 38,-13 -2,-11 -40,-13 -34,-23 6,-9 21,-26 43,-3 23,22 32,17 32,2 0,-15 -13,-29 -15,-57 -2,-28 -21,-11 -36,-7 -15,4 -33,26 -39,11 -6,-15 -2,-19 4,-28 5,-9 20,-8 11,-23 -9,-14 2,-9 9,-22 8,-13 -2,-2 -15,-26 -13,-25 -31,-10 -20,-25 11,-15 -10,-35 -11,-41 -1,-7 -11,-25 -15,-33 -4,-9 -7,-30 -6,-54 1,-23 -19,-21 -38,-43 -19,-21 -50,-30 -64,-38 -13,-7 -36,22 -72,23 -37,1 -57,-11 -70,-27 -13,-16 -2,-12 -12,-33 -10,-22 -24,-22 -24,-38 0,-16 25,-1 29,-11 4,-10 11,6 20,-16 10,-22 29,1 42,-9 14,-11 -12,-11 -16,-14 -5,-4 -31,17 -43,23 -13,6 -27,-4 -15,-9 11,-6 9,-5 1,-31 -9,-26 -36,-29 -44,-53 -7,-25 51,-48 63,-55 12,-6 2,-22 22,-21 19,1 46,-6 54,-17 8,-11 17,-21 27,-30 10,-10 -5,-17 -14,-33 -8,-16 13,-7 22,-20 8,-12 8,-5 -13,-11 -22,-5 -42,18 -58,4 -15,-14 -11,-12 -12,-22 -1,-9 -4,-15 11,-38 15,-22 9,4 14,0 4,-4 29,-34 45,-57 17,-23 29,-21 29,-30 1,-9 24,12 38,10 14,-2 -10,-31 -7,-34 2,-3 10,-14 5,-21 -4,-6 -16,-11 -22,-27 -6,-15 17,-4 16,-13 0,-8 4,-8 21,-11 17,-4 53,56 62,62 8,7 -49,-73 -46,-80 2,-7 41,-17 52,-21 10,-4 13,-12 35,-27 23,-15 14,-1 20,6 6,6 8,13 18,20 10,7 3,-18 3,-18 0,0 11,-10 19,2 9,12 11,23 7,32 -5,10 19,25 27,35 8,11 7,-10 10,-13 3,-2 -6,-12 -18,-30 -11,-17 -4,-20 -7,-30 -3,-9 -3,-14 -3,-22 1,-8 20,-11 24,-14 4,-3 5,6 9,11 4,5 -1,-1 10,-13 10,-11 6,8 17,18 10,11 15,8 15,8 0,0 -2,0 -20,12 -18,12 24,31 32,41 7,10 17,28 26,38 9,11 1,-8 19,-12 17,-4 -14,-7 -16,-17 -2,-9 4,-22 7,-41 3,-18 11,11 44,12 33,1 -23,-19 -28,-32 -5,-13 -19,-24 -44,-52 -25,-28 47,-8 69,-1 23,8 26,22 39,43 13,22 13,0 13,0 0,0 -8,-23 -24,-43 -17,-19 -41,-19 -58,-19 -16,0 -7,-23 -7,-31 0,-9 20,2 32,-1 12,-3 -11,-14 -7,-25 5,-10 14,8 28,25 14,17 43,42 60,45 17,2 -6,-15 -9,-21 -3,-6 4,-6 10,-7 7,-2 -2,-7 -11,-18 -9,-11 17,-1 32,-8 15,-6 -8,-13 -17,-17 -9,-5 -6,-20 -4,-27 2,-6 3,-5 16,3 13,9 6,-15 6,-15 0,0 19,12 27,11 7,-1 -18,-29 5,-38 22,-9 66,-7 81,1 15,8 48,11 66,13 19,2 64,27 65,32 1,5 -23,20 -24,25 -2,5 -63,3 -72,-1 -10,-4 -35,11 -58,26 -22,14 -45,14 -52,26 -6,11 36,-7 52,-10 15,-2 35,-16 48,-21 13,-5 39,4 58,9 20,6 30,-15 46,-24 16,-10 13,12 14,31 1,18 -10,19 -8,29 2,9 16,-11 20,-13 5,-3 45,16 57,35 13,20 0,25 1,30 1,6 -10,9 -31,24 -22,15 -45,20 -53,27 -7,6 -30,0 -48,-4 -17,-4 -52,12 -65,20 -13,7 -34,22 -44,38 -10,16 11,12 34,-1 22,-13 24,-9 50,-28 26,-19 53,-8 63,-10 9,-3 19,8 21,19 3,12 -8,20 -12,27 -4,6 -39,32 -39,32 0,0 27,-9 38,-14 11,-4 31,-31 32,-46 1,-15 23,-23 40,-37 17,-14 12,52 13,70 1,18 -15,44 -20,63 -6,19 -12,28 -28,48 -16,21 19,14 28,2 8,-11 12,-42 17,-60 4,-19 24,-24 37,-55 13,-31 6,9 20,18 14,9 13,4 29,-3 16,-6 -20,-17 -19,-22 1,-6 4,-8 20,10 16,18 3,-28 36,-50 33,-21 79,53 85,66 7,13 -36,43 -53,71 -17,28 -25,25 -25,25 0,0 -24,-10 -39,6 -15,16 -31,1 -38,-1 -8,-2 -20,14 -25,22 -6,9 7,11 21,-6 14,-17 17,5 44,0 27,-5 26,5 34,13 7,8 -1,10 -19,37 -18,28 -34,-24 -45,-11 -10,13 -13,16 -18,35 -4,19 0,13 16,14 17,1 13,-18 13,-18 0,0 17,3 17,8 0,4 -31,37 -31,37 0,0 6,47 6,53 0,5 -35,25 -41,34 -7,8 0,19 9,41 8,22 -5,22 -14,28 -9,6 -7,15 -9,30 -1,14 14,12 20,9 5,-2 25,-11 27,-9 1,3 -16,26 -20,35 -5,9 23,9 27,8 4,-1 17,-4 17,-4 0,0 0,64 -2,70 -2,5 -20,-18 -32,-29 -11,-11 -32,14 -44,34 -11,19 14,24 19,26 5,2 40,64 40,76 -1,11 -41,-16 -49,-21 -7,-6 11,34 24,45 13,12 27,35 22,35 -4,-1 -39,12 -52,20 -13,9 24,30 27,31 3,2 8,30 8,30 0,0 -30,11 -39,-2 -10,-13 -11,20 -11,20 0,0 -6,27 -12,17 -5,-9 -45,2 -45,2 0,0 36,30 47,43 11,13 36,49 45,66 9,17 -19,45 -32,52 -13,8 -26,-20 -26,-20 0,0 -13,-40 -26,-45 -13,-6 -11,17 -2,24 9,8 -21,15 -30,23 -9,7 -2,30 21,20 22,-9 67,17 67,17 0,0 -141,99 -161,105 -21,6 -40,-28 -40,-28 0,0 0,17 10,32 9,15 -55,80 -66,88 -11,7 -9,30 -20,13 -12,-17 -44,34 -55,36 -11,1 -24,41 -20,60 3,18 -25,41 -40,60 -15,18 -35,127 -35,127zm1971 -529l0 0c-13,-7 -8,-37 -22,-49 -14,-12 -50,-25 -41,-33 9,-7 32,-22 34,-35 2,-12 3,-39 13,-44 10,-6 27,-14 19,-23 -7,-8 -19,-36 -13,-36 7,0 33,-20 35,-29 2,-10 -2,-53 6,-57 7,-3 119,-82 119,-82 0,0 45,-13 57,-26 11,-13 89,-52 89,-39 0,13 0,32 -5,43 -6,11 -174,135 -191,152 -17,17 -32,35 -34,54 -2,19 -28,40 -32,53 -4,13 -21,35 -21,71 0,35 79,58 49,79 -30,20 -62,1 -62,1zm-128 73l0 0c0,24 17,36 24,37 6,1 35,-11 26,-26 -8,-15 -25,-26 -31,-23 -5,4 -19,12 -19,12zm-1436 243l0 0c12,7 38,-1 31,13 -8,14 -13,16 -9,23 5,8 29,-1 32,9 3,9 70,4 70,4 0,0 57,-37 65,-49 8,-12 30,-25 10,-47 -19,-21 -38,-49 -55,-39 -17,9 -44,23 -62,25 -17,2 -44,-13 -44,-13 0,0 6,-35 -16,-16 -23,19 -37,51 -33,56 4,6 35,10 35,10 0,0 -44,13 -40,21 4,8 16,3 16,3zm346 485l0 0c-4,5 -48,39 -57,30 -8,-8 -36,-25 -23,-29 13,-3 32,-9 27,-23 -6,-14 -24,-28 -20,-36 5,-9 44,-26 44,-26 0,0 29,-19 30,-12 1,8 13,8 13,18 0,10 -7,33 -7,33 0,0 -3,16 -2,27 1,11 -5,18 -5,18zm45 -24l0 0c-3,24 -2,25 -8,29 -7,5 -1,7 2,13 2,7 22,4 11,14 -11,11 -54,31 -39,38 16,6 81,-10 81,-10 0,0 54,-1 61,-11 6,-10 -8,-23 1,-32 8,-8 12,-15 11,-23 -1,-8 -8,-45 -24,-54 -17,-10 -77,-80 -72,-83 6,-2 47,-22 30,-35 -16,-13 -45,-13 -43,-22 3,-8 15,-21 15,-21l-19 -10c0,0 -20,7 -27,13 -6,5 -12,8 -20,6 -9,-2 -24,7 -24,7 0,0 23,17 20,22 -3,5 -22,23 -22,23l17 8 -3 10c0,0 26,-10 19,1 -6,11 -15,4 -14,13 1,10 11,10 8,15 -3,6 23,0 23,9 0,8 15,-5 11,10 -3,15 -9,23 -3,26 5,3 33,-5 34,3 1,8 -22,30 -22,30l-4 11zm3612 2173l0 0c4,-4 39,-52 40,-55 1,-3 15,-4 16,-8 1,-5 6,-25 9,-25 2,-1 8,-4 4,-7 -3,-2 -11,-13 -18,-11 -8,2 -17,15 -23,9 -6,-6 -9,-15 -21,-26 -12,-11 -18,2 -20,-6 -2,-8 17,-11 -2,-21 -19,-11 -37,-44 -42,-34 -5,9 1,7 4,20 3,13 9,24 11,26 2,2 20,4 22,20 3,16 6,29 -1,39 -8,9 -16,21 -12,28 3,6 39,6 31,15 -8,8 -8,12 -8,23 0,12 -3,19 0,20 3,0 8,-3 8,-4 0,0 2,-3 2,-3zm-179 116l0 0c0,0 -4,-7 3,-13 7,-5 37,-35 67,-57 29,-21 26,-32 30,-42 4,-9 3,-17 8,-27 6,-10 16,-2 22,4 6,7 7,-2 15,-7 8,-4 17,17 17,19 0,2 -9,27 -11,29 -2,3 -19,43 -22,48 -3,5 -21,10 -30,5 -8,-5 -9,31 -9,37 -1,7 -29,29 -35,36 -6,6 -31,22 -37,16 -5,-7 4,-11 6,-14 3,-2 -23,-30 -24,-34zm-439 -132l0 0c1,9 22,72 35,74 14,3 38,-28 39,-30 2,-3 12,-30 9,-35 -3,-5 -11,-11 -10,-13 1,-2 25,-16 5,-22 -21,-7 -29,-11 -24,-5 5,7 10,15 10,15 0,0 1,10 -9,12 -10,3 -24,2 -30,-2 -5,-5 -16,1 -16,1 0,0 -2,-19 -6,-18 -4,0 -24,-4 -22,3 3,8 22,15 22,15l-3 5zm-599 -180l0 0c0,0 27,-39 21,-50 -5,-11 -13,-18 -16,-30 -3,-12 1,-23 -11,-42 -11,-18 -30,-45 -36,-55 -6,-10 25,-67 31,-73 5,-7 37,-56 45,-53 8,3 66,-15 71,-15 5,-1 37,-12 38,-24 1,-13 12,-44 17,-44 5,0 9,9 17,4 7,-6 36,-76 48,-68 13,7 49,30 49,30 0,0 27,-19 30,-30 3,-12 13,-22 7,-32 -7,-11 29,-29 34,-23 6,7 32,6 40,11 7,4 41,-7 44,5 4,12 3,39 -2,46 -6,7 -2,25 4,33 7,7 47,31 53,27 5,-4 12,-2 13,4 1,5 13,15 13,15 0,0 29,-17 24,-30 -4,-13 3,-84 3,-84 0,0 9,-47 18,-32 9,15 23,16 26,29 3,12 8,33 14,46 7,12 42,26 39,42 -2,16 -4,39 2,54 7,15 14,14 17,20 3,5 67,55 70,62 4,8 3,24 14,46 12,23 30,23 32,43 2,20 7,64 4,76 -3,12 -8,37 -23,59 -14,21 -32,59 -33,69 -1,10 -3,53 -11,56 -7,3 -41,-6 -50,11 -9,16 -25,24 -25,24 0,0 -7,-29 -27,-18 -19,11 -7,21 -29,14 -23,-6 -32,-6 -44,-11 -13,-5 -19,-56 -36,-71 -17,-15 -31,-36 -31,-36 0,0 9,-37 1,-31 -8,7 -24,84 -44,58 -20,-25 -50,-80 -60,-80 -10,0 -82,5 -106,12 -23,8 -40,15 -48,12 -9,-3 -20,15 -23,24 -3,8 -81,1 -89,6 -7,6 -16,28 -36,26 -20,-1 -37,1 -47,-8 -10,-9 -14,-22 -12,-24zm-1417 -309l0 0c5,-14 -12,-49 10,-67 23,-17 79,-84 84,-92 4,-9 17,-26 23,-15 6,11 6,41 6,65 0,25 -14,57 -20,70 -6,12 -20,72 -21,88 -2,17 -25,63 -30,68 -4,4 -29,25 -36,25 -7,0 -34,-3 -25,-12 8,-9 10,-12 6,-21 -3,-8 -9,-41 -13,-47 -4,-7 2,-41 10,-48 7,-8 6,-14 6,-14zm-532 303l0 0c-2,-11 6,-34 -5,-50 -12,-17 -30,-66 -44,-87 -13,-20 -20,-52 -20,-73 0,-20 4,-33 1,-41 -3,-8 -15,-20 -16,-27 0,-7 -7,-30 -13,-37 -7,-8 -32,-27 -29,-38 3,-11 15,-85 18,-89 3,-4 36,-28 33,-42 -3,-13 -13,-29 -15,-33 -3,-4 -8,-18 -6,-22 2,-5 6,-11 2,-16 -4,-5 -15,-24 -16,-28 -1,-4 -6,-38 -22,-54 -16,-16 -61,-30 -53,-51 9,-20 16,-50 16,-59 0,-8 17,-36 5,-44 -12,-7 -24,-18 -35,-16 -11,2 -25,7 -33,0 -7,-6 -26,-31 -35,-33 -9,-2 -37,-6 -37,-6 0,0 -20,5 -31,13 -12,9 -35,26 -54,22 -18,-5 -44,-7 -55,-2 -11,4 -50,14 -66,16 -17,2 -115,-75 -124,-90 -9,-15 -28,-57 -36,-65 -9,-7 -41,-18 -38,-35 3,-17 16,-61 19,-67 3,-5 12,-68 8,-83 -3,-15 -11,-47 -6,-51 4,-3 46,-81 62,-96 17,-15 60,-47 60,-47 0,0 -3,-8 6,-26 9,-18 11,-37 23,-49 12,-13 30,-26 42,-40 13,-14 21,-27 22,-32 1,-4 6,-16 12,-7 7,9 21,8 28,8 8,0 51,-1 63,-5 12,-5 34,-24 44,-25 10,-1 49,-9 78,-11 30,-2 77,-14 91,-7 14,6 31,13 26,17 -4,5 -17,15 -7,32 10,17 12,40 18,50 5,10 10,14 27,15 17,1 30,-8 43,8 13,16 51,31 79,37 29,5 41,-65 67,-51 26,14 45,30 72,36 27,5 73,3 73,3 0,0 11,-21 33,-5 21,16 24,20 37,13 13,-7 30,-18 30,-18 0,0 -3,-35 5,-52 7,-17 16,-34 18,-39 1,-4 7,-28 -9,-25 -16,3 -33,20 -41,14 -8,-5 -24,-18 -37,-12 -12,7 -29,13 -35,12 -7,-1 -55,13 -55,13 0,0 -19,-19 -17,-31 2,-11 11,-17 9,-29 -2,-11 -13,-23 -6,-34 6,-11 16,-36 21,-39 6,-2 -37,13 -42,14 -5,2 -4,27 -8,27 -5,0 -35,-28 -39,-21 -3,8 -3,21 3,37 6,15 -16,32 -16,32 0,0 -29,-18 -29,-25 0,-6 -24,-61 -23,-65 1,-5 -11,-22 -16,-28 -6,-5 -67,-41 -80,-52 -12,-11 -34,-53 -39,-47 -5,7 -14,20 -14,20 0,0 7,16 14,20 7,5 6,21 33,38 27,17 77,51 80,56 4,5 -2,26 -2,26 0,0 -30,-22 -30,-14 0,9 16,25 12,29 -5,5 -35,36 -40,31 -4,-5 -9,1 -8,5 1,3 -1,15 -8,17 -7,1 -57,-23 -51,-26 7,-3 34,-9 42,-9 8,-1 19,12 20,5 1,-7 5,-19 7,-23 1,-3 8,-10 0,-17 -8,-7 -82,-55 -88,-64 -7,-10 -43,-60 -46,-60 -3,0 -17,10 -22,14 -5,4 -32,33 -45,27 -13,-6 -38,-24 -46,-11 -8,13 -9,16 -2,22 6,5 3,13 1,15 -2,2 -14,3 -22,15 -8,11 -22,17 -27,21 -5,4 -16,15 -17,31 -1,16 4,7 -3,18 -7,12 -18,32 -34,39 -16,6 -47,2 -53,7 -7,5 -20,14 -22,12 -2,-2 -18,-16 -20,-19 -2,-3 -18,-9 -22,-7 -5,2 -27,-11 -28,-14 0,-4 -19,-46 -13,-59 5,-13 15,-36 14,-45 0,-9 -7,-24 -7,-24 0,0 -8,-14 2,-19 9,-5 15,-15 23,-12 7,3 14,3 22,3 8,0 24,-5 29,-3 5,3 15,8 27,7 12,-2 48,-1 50,-3 2,-2 17,-37 12,-52 -6,-14 -7,-33 -15,-38 -9,-4 -60,-54 -60,-54 0,0 10,-7 15,-8 6,-1 49,18 44,11 -6,-7 -9,-27 -4,-28 4,-1 23,-2 28,-2 4,0 32,-8 36,-14 4,-6 18,-28 23,-32 5,-4 8,-15 21,-23 14,-8 35,-63 35,-63 0,0 20,-37 23,-33 3,4 -7,35 2,32 8,-4 14,-13 18,-18 4,-5 15,-33 11,-49 -5,-15 1,-48 8,-52 6,-4 36,-37 39,-27 3,9 20,50 29,43 9,-7 7,-10 6,-15 -1,-4 -10,-19 -12,-27 -2,-8 -8,-49 -10,-50 -1,-1 -9,-5 -14,1 -6,6 -21,25 -33,33 -13,8 -29,7 -33,7 -3,-1 -50,-61 -48,-72 2,-11 11,-11 6,-16 -4,-5 -8,-15 -8,-20 0,-5 -1,-24 2,-26 4,-3 13,-34 19,-41 5,-6 30,-46 41,-55 11,-9 37,-36 44,-36 6,0 9,-1 16,-18 6,-17 20,-5 20,-22 0,-17 0,-43 5,-46 5,-2 12,-30 21,-36 10,-7 25,-29 27,-33 3,-5 15,-23 13,-26 -2,-3 -5,-13 -10,-10 -5,4 -14,9 -17,12 -2,2 -11,-3 -12,7 -1,10 6,14 3,14 -2,0 -9,1 -12,-2 -4,-3 -8,-15 0,-24 8,-9 24,-22 28,-26 3,-4 6,-20 15,-29 9,-8 23,-23 26,-22 2,0 9,2 18,-4 8,-6 22,-21 28,-24 5,-3 3,-9 8,-17 6,-7 13,-18 19,-15 6,3 21,-2 26,2 5,5 7,2 13,-3 5,-5 12,-16 18,-19 5,-2 70,-21 76,-14 7,6 46,2 46,2 0,0 13,0 21,7 7,8 50,17 29,34 -22,17 -17,23 -17,23 0,0 8,17 23,5 15,-12 23,-7 33,0 10,7 43,8 54,19 11,10 42,25 56,39 14,14 27,36 34,43 8,7 21,8 27,22 7,13 -3,25 -5,35 -3,10 -26,31 -31,34 -6,3 -19,9 -24,7 -4,-2 -22,-4 -32,-10 -11,-6 -63,-20 -63,-20 0,0 -17,-2 -10,11 8,13 28,19 28,19 0,0 21,-3 12,13 -10,17 -12,16 -8,25 5,8 4,20 6,26 1,5 6,10 14,16 8,6 19,6 19,14 0,9 8,10 11,10 3,0 15,-23 11,-25 -5,-2 -15,-7 -25,-12 -10,-5 -7,-11 -6,-19 1,-7 4,-22 20,-8 17,14 24,14 29,20 5,7 7,26 15,17 9,-9 13,-19 11,-28 -1,-9 -14,-12 -12,-20 3,-8 30,-30 38,-36 7,-5 25,-36 26,-40 2,-5 13,-10 12,8 -1,19 -3,19 3,22 6,4 9,18 11,17 3,0 13,-23 11,-32 -2,-8 -3,-15 -10,-20 -8,-5 -16,-5 -9,-18 7,-12 13,-22 13,-22 0,0 -3,-10 -6,-20 -3,-11 -6,-18 -10,-23 -5,-6 17,-6 24,-1 7,5 25,7 32,15 7,7 14,17 11,24 -2,7 -5,8 -16,16 -11,8 -18,5 -13,12 4,6 7,5 14,15 7,11 29,3 38,-14 10,-17 1,-16 21,-27 19,-12 57,-52 64,-56 7,-4 28,-8 35,-7 8,2 -3,14 3,20 5,6 -6,14 -12,18 -5,5 -10,4 -10,9 0,5 24,5 25,0 1,-5 1,-6 9,-15 8,-9 15,-11 15,-11l-13 -14c0,0 10,-16 21,-9 10,8 15,11 20,13 6,3 16,-1 25,1 10,2 13,-2 13,-8 0,-6 11,-16 11,-16l3 18c0,0 5,10 13,11 7,1 18,12 14,-11 -5,-24 -2,-18 -18,-36 -16,-18 -11,-18 -25,-27 -14,-9 9,-29 9,-29 0,0 8,21 20,28 11,8 39,8 61,15 23,8 26,13 39,29 13,16 -5,9 31,28 35,19 43,18 47,28 3,11 2,-8 4,-20 2,-12 5,-10 -10,-23 -15,-13 -9,-10 -26,-25 -17,-15 -11,-22 -12,-42 -2,-21 -9,-23 -12,-29 -3,-7 -1,-6 12,-22 14,-16 27,-25 29,-35 3,-11 9,-42 13,-59 3,-17 2,-25 16,-32 14,-8 21,-13 20,-19 -1,-5 9,-16 15,-3 7,14 16,18 11,23 -4,5 -6,11 -1,13 6,2 19,-5 19,6 0,10 2,23 0,37 -2,14 -9,37 -9,37 0,0 -9,4 -2,20 6,16 4,19 8,36 5,17 2,19 -2,32 -3,12 2,33 3,39 1,5 15,8 6,19 -9,12 -2,21 1,29 3,9 6,18 3,27 -4,8 1,18 -4,32 -6,13 -8,28 -16,32 -8,5 -51,11 -51,11 0,0 -15,-6 -14,2 1,9 22,17 22,17 0,0 36,2 40,-3 4,-4 15,-16 20,-19 4,-4 19,-1 21,-11 3,-11 3,-34 8,-41 5,-6 21,-4 11,-20 -10,-16 -23,-23 -21,-27 3,-5 41,-15 41,-15 0,0 -7,-9 -27,-10 -21,-1 -17,-2 -17,-10 0,-8 -11,-53 -7,-60 4,-7 20,-2 8,-20 -13,-17 -14,-19 -13,-45 2,-25 18,-44 18,-44 0,0 11,-14 11,-24 0,-9 13,-52 14,-42 1,10 14,33 9,46 -5,13 -5,26 -8,40 -2,14 13,1 13,1l6 -36c0,0 16,-28 20,-23 4,5 34,19 42,27 8,8 32,16 39,26 7,10 27,4 27,16 1,12 3,15 -3,27 -5,12 -6,21 3,38 8,17 25,16 23,0 -1,-15 -3,-45 -5,-50 -3,-6 -14,-15 -17,-22 -4,-6 -2,-9 -8,-19 -5,-9 -20,-13 -29,-24 -9,-12 5,-41 -1,-46 -6,-6 -9,-16 -8,-18 0,-3 97,-30 99,-24 2,5 25,16 29,10 3,-5 19,-8 3,-38 -15,-30 -33,-34 -9,-55 24,-22 53,-51 70,-65 17,-14 84,-10 90,-25 7,-15 4,-42 4,-42 0,0 -6,-30 4,-30 9,0 25,-7 21,-12 -4,-4 6,-30 11,-15 6,15 5,17 3,25 -2,7 11,7 12,18 1,10 -15,9 -24,1 -9,-9 -26,-12 -23,-6 2,6 18,11 18,11 0,0 -1,4 -4,13 -3,10 10,5 16,0 5,-4 20,3 16,14 -5,12 -11,26 0,18 12,-7 25,-1 27,-17 2,-16 -18,-30 7,-30 25,0 63,13 57,-6 -5,-20 -21,-44 -14,-55 8,-10 28,-22 39,-28 12,-5 60,-3 66,-1 6,3 3,24 -4,28 -6,5 -3,12 11,21 13,9 23,0 21,17 -2,17 -9,26 -1,28 9,2 15,-14 25,-19 11,-4 35,-3 44,3 10,6 11,-6 25,16 14,22 18,12 25,25 7,13 7,27 6,36 -2,8 5,21 0,37 -6,16 -9,24 -23,32 -14,9 -14,9 -26,19 -12,9 0,-8 -15,10 -15,18 4,1 -24,29 -28,28 -28,31 -36,41 -7,11 -12,15 -25,34 -13,19 -15,33 -7,25 9,-7 69,-48 69,-48 0,0 15,-3 16,-22 1,-19 20,-36 20,-36 0,0 -6,28 0,30 6,3 16,3 16,3 0,0 7,-21 4,-27 -3,-6 8,-34 19,-22 12,11 26,9 15,24 -10,15 9,28 9,28 0,0 4,-3 18,2 13,5 18,6 32,6 14,1 25,1 30,9 6,7 18,11 19,16 1,4 62,15 62,15 0,0 38,4 28,-11 -10,-14 -18,-34 -7,-34 11,0 15,-3 30,7 15,11 36,7 51,9 15,2 30,1 35,20 6,20 10,36 2,43 -7,8 -26,6 -14,25 12,18 23,11 25,30 3,18 15,45 28,52 12,8 22,6 23,-15 1,-20 1,-51 6,-51 6,0 20,16 22,22 2,6 10,12 30,9 20,-4 12,-16 29,-5 17,11 19,26 30,20 11,-7 19,-5 24,-25 6,-19 -9,-43 -2,-55 8,-12 51,-31 51,-31 0,0 60,4 58,24 -3,19 -18,13 -7,28 11,16 13,21 13,25 -1,4 7,18 22,1 14,-18 25,-52 40,-44 15,8 51,30 48,41 -3,10 32,26 39,36 7,10 9,26 17,25 9,-2 32,-12 37,-14 5,-1 71,16 74,20 4,5 37,-8 37,14 0,23 -10,30 -9,40 1,9 19,17 19,26 0,9 -5,34 -5,34 0,0 18,-7 21,-29 3,-23 17,-31 23,-32 5,-1 13,-10 46,5 34,15 44,-19 55,-5 10,14 19,24 22,36 3,12 33,26 36,11 3,-15 12,-16 -4,-30 -16,-14 -8,-27 -3,-28 6,0 24,-15 42,-5 19,9 56,12 70,16 14,3 140,97 161,120 20,22 28,3 28,40 0,36 5,33 9,26 4,-8 -8,-31 10,-31 18,0 33,13 44,23 11,9 40,1 24,29 -17,27 -35,21 -37,34 -2,13 4,39 -6,43 -11,5 -32,-3 -39,-10 -6,-8 -27,-38 -40,-44 -13,-6 -33,9 -37,3 -5,-7 -10,-52 -19,-46 -10,6 -25,10 -20,20 6,9 17,11 11,22 -5,11 -7,10 -17,23 -11,14 -12,22 -22,16 -10,-5 -18,-23 -29,-12 -11,11 4,10 23,35 20,24 22,38 23,47 1,8 -9,33 -9,33 0,0 -22,-34 -36,-18 -14,15 -121,85 -124,91 -4,7 -22,32 -22,32 0,0 1,-18 -20,-28 -20,-10 -23,-1 -38,15 -15,16 -22,26 -30,15 -8,-11 -30,-3 -30,-3 0,0 -6,-6 -14,9 -7,16 -15,38 -15,38 0,0 -23,0 -8,15 15,15 27,15 23,20 -4,6 -14,11 -12,21 2,10 11,23 11,23 0,0 6,11 -6,17 -13,7 -26,12 -26,12 0,0 -1,16 0,21 1,5 -1,21 -7,23 -7,3 -91,102 -104,126 -13,24 -32,38 -32,38l-15 35c0,0 -19,28 -28,28 -10,0 3,-20 3,-20l25 -27 2 -30 22 -3c0,0 23,-21 15,-30 -7,-10 10,-28 10,-28 0,0 3,-13 -2,-25 -6,-11 -12,-18 -12,-37 0,-19 -20,-85 6,-111 26,-26 71,-82 79,-94 7,-11 80,-61 84,-78 4,-17 -4,-43 9,-55 14,-11 8,-33 -11,-16 -19,16 -39,45 -39,45l-32 41c0,0 -15,-10 -19,-32 -3,-23 2,-39 -20,-23 -23,17 -27,6 -40,27 -13,20 -37,50 -41,65 -4,15 0,36 0,36 0,0 -4,2 -32,7 -28,6 -56,-7 -62,-17 -5,-9 -18,-9 -28,-1 -9,7 -39,1 -50,-4 -12,-6 -27,-17 -34,-8 -8,10 -15,0 -30,19 -15,19 -19,15 -38,39 -18,25 -26,25 -35,36 -10,11 -26,32 -36,43 -9,11 -24,25 -24,25l11 28c0,0 11,-30 19,-13 7,16 7,28 7,28l34 -13 28 20c0,0 8,30 2,43 -6,13 9,21 -2,51 -11,30 -22,94 -35,105 -14,11 -34,62 -59,84 -24,23 -56,45 -56,45 0,0 -37,-19 -54,2 -17,21 0,51 -19,58 -19,8 -39,13 -39,24 0,12 28,64 28,64l-15 30c0,0 5,28 -6,34 -11,6 -23,19 -26,15 -2,-4 -10,-38 -11,-53 0,-14 -25,-44 -25,-44 0,0 -6,-12 -3,-21 3,-9 4,-21 -5,-19 -10,2 -16,1 -29,5 -13,4 -35,15 -35,15 0,0 -11,-5 -1,-18 10,-12 25,-27 16,-28 -10,-2 -22,7 -31,13 -8,6 -21,11 -34,23 -12,13 -44,10 -25,20 19,11 26,-1 31,12 5,14 18,10 21,7 4,-4 8,-11 18,-8 9,3 17,-2 21,7 3,9 8,-2 5,12 -4,14 9,6 -12,21 -20,14 -41,24 -41,27 -1,3 1,7 5,17 3,9 11,16 14,26 3,9 7,33 14,42 8,10 26,6 19,24 -6,19 -7,27 -6,31 1,3 -39,45 -40,58 -2,12 -12,27 -20,36 -8,9 -27,27 -43,39 -15,12 -63,31 -72,34 -9,3 -39,4 -44,8 -5,3 -31,2 -25,10 6,7 19,39 11,50 -9,10 -43,10 -42,-1 0,-11 34,-37 28,-45 -5,-8 -6,-11 -8,-11 -2,0 -13,-3 -20,-3 -6,1 -15,12 -22,19 -6,8 -22,19 -25,25 -3,6 -18,21 -15,25 3,4 29,20 29,20 0,0 13,10 16,14 2,5 56,76 52,82 -4,5 -15,4 -24,23 -10,19 -57,48 -73,55 -16,8 -29,15 -25,5 5,-10 11,-19 -6,-32 -17,-13 -46,-50 -59,-44 -13,7 -36,-8 -30,8 6,16 -15,0 -2,20 13,21 34,10 23,25 -10,15 -27,17 -15,33 11,16 15,26 34,41 20,16 48,20 45,45 -3,26 3,55 3,55 0,0 -39,-24 -32,-1 8,22 25,29 30,35 5,7 24,23 34,34 9,11 32,-6 40,5 8,10 38,29 33,36 -6,8 -18,-2 -32,-9 -14,-8 -43,-13 -37,4 5,18 29,34 39,41 10,6 28,3 53,5 25,3 70,14 92,20 21,6 112,33 154,22 42,-10 56,-15 68,-9 12,6 52,-22 58,-16 5,7 76,-14 65,2 -11,16 -18,18 -34,18 -17,0 -38,-10 -60,5 -23,15 -74,40 -79,36 -5,-4 -43,-35 -63,-22 -19,12 -55,4 -68,1 -13,-2 -79,-17 -109,-16 -31,1 -72,-15 -83,-17 -11,-2 -52,-25 -52,-25 0,0 -59,-63 -73,-78 -14,-15 -58,-79 -52,-54 7,26 43,62 21,45 -23,-16 -54,-38 -48,-53 7,-15 12,-32 0,-37 -12,-6 -30,1 -31,-13 -1,-15 2,-32 -9,-42 -11,-9 -12,-16 -6,-16 7,0 53,14 57,18 5,5 34,31 48,40 14,10 30,29 24,10 -7,-20 -19,-22 -32,-51 -13,-29 -38,-68 -38,-68l-3 -22c0,0 16,-25 3,-28 -13,-2 -4,-29 2,-31 7,-3 -6,-36 -11,-45 -5,-10 21,-60 -5,-39 -26,22 -40,51 -53,29 -13,-21 16,-55 1,-62 -15,-8 -42,-25 -42,-34 0,-9 -4,-47 -13,-47 -10,0 -61,0 -67,5 -5,4 -61,49 -75,65 -14,16 -64,66 -68,71 -4,6 -23,1 -22,25 0,23 -6,44 -9,52 -3,9 1,46 -14,57 -15,11 -26,23 -35,19 -10,-4 -17,-36 -29,-61 -11,-25 -18,-68 -29,-77 -10,-8 -22,-12 -23,-26 -1,-14 -11,-69 -11,-76 0,-6 7,-41 0,-37 -8,4 -49,4 -49,4 0,0 -25,-30 -28,-38 -3,-7 -50,-50 -69,-52 -20,-2 -64,9 -71,6 -8,-2 -74,-1 -82,-11 -7,-10 -31,-40 -36,-34 -6,5 -17,15 -29,8 -12,-8 -98,-65 -103,-70 -5,-6 -20,-12 -24,-8 -4,3 -4,10 -2,14 1,3 10,17 13,22 3,6 27,41 31,46 5,6 21,-4 26,9 5,13 -7,24 4,37 10,13 16,-3 25,-2 10,0 27,-5 31,-10 4,-4 23,-31 29,-25 6,5 13,3 15,14 1,10 2,20 5,21 3,1 28,10 37,18 8,8 22,12 23,18 1,5 -16,57 -23,57 -8,0 -27,-5 -24,5 4,10 14,16 5,23 -9,8 -28,13 -36,24 -9,10 -46,20 -80,42 -34,21 -93,48 -101,50 -8,2 -56,17 -61,2 -6,-15 -36,-79 -36,-79 0,0 -64,-52 -60,-75 4,-22 4,-43 -11,-56 -15,-13 -51,-83 -56,-92 -6,-9 -14,-47 -19,-56 -6,-9 -9,22 -8,30 1,7 -12,1 -15,-6 -3,-6 -19,-21 -19,-18 0,3 13,24 15,27 3,4 8,5 11,17 4,12 12,35 16,43 4,8 26,58 28,61 2,2 9,25 14,41 4,17 21,58 27,64 6,7 53,25 51,35 -1,9 -5,20 5,28 10,7 18,35 25,49 8,14 15,33 36,30 20,-3 158,-33 151,-11 -8,23 -34,104 -51,123 -17,18 -61,52 -82,74 -22,21 -94,93 -105,114 -11,20 3,49 -1,67 -4,17 -8,25 -4,30 3,4 25,40 24,56 -1,15 -14,101 -22,108 -8,6 -65,43 -72,53 -7,10 -29,22 -26,34 3,12 19,16 17,29 -3,13 -13,61 -22,67 -9,7 -29,11 -29,24 0,13 0,20 -6,31 -7,12 -13,17 -24,36 -11,19 -23,44 -33,58 -9,14 -43,45 -71,52 -28,8 -63,6 -84,15 -21,10 -38,10 -44,14 -6,3 -27,0 -31,-9 -4,-8 -20,-28 -20,-28z"/>
 </g>
</svg>
