<?xml version="1.0" encoding="UTF-8"?>
<!DOCTYPE svg PUBLIC "-//W3C//DTD SVG 1.1//EN" "http://www.w3.org/Graphics/SVG/1.1/DTD/svg11.dtd">
<!-- Creator: CorelDRAW X6 -->
<svg xmlns="http://www.w3.org/2000/svg" xml:space="preserve" width="1471px" height="532px" version="1.1" shape-rendering="geometricPrecision" text-rendering="geometricPrecision" image-rendering="optimizeQuality" fill-rule="evenodd" clip-rule="evenodd"
viewBox="0 0 1144 413"
 xmlns:xlink="http://www.w3.org/1999/xlink">
 <g id="Layer_x0020_1">
  <metadata id="CorelCorpID_0Corel-Layer"/>
  <g id="_812018592">
   <path fill="black" fill-opacity="0.600000" stroke="black" stroke-width="0.587683" stroke-opacity="0.600000" d="M25 136c80,-43 299,-129 482,-135 114,2 231,68 328,82 93,11 264,26 300,74 28,42 -25,202 -78,211 -63,9 -142,44 -225,46l-774 -5c-55,-1 -80,-246 -33,-272z"/>
   <path fill="#00AFEF" d="M827 367c-34,-35 -26,-96 18,-138l5 6c-2,2 -4,3 -6,5 -38,36 -45,88 -16,118 29,29 83,25 121,-11 21,-20 33,-45 34,-69l28 0c-2,27 -16,55 -40,77 -45,42 -109,48 -144,13l0 0z"/>
   <path fill="#00AFEF" d="M320 109c172,-60 317,-8 455,72 -144,-70 -294,-107 -455,-72z"/>
   <path fill="white" d="M68 137c126,-48 215,-27 283,36 -63,-53 -166,-67 -283,-36z"/>
   <path fill="white" d="M148 105c52,-6 100,-10 181,-34 141,-48 315,-31 453,50 -16,2 -31,3 -47,5 171,5 328,17 377,82 -15,-21 11,-77 -301,-87 -58,-19 -242,-141 -488,-59 -62,20 -117,29 -175,43z"/>
   <path fill="#00AFEF" d="M75 174c-50,43 -53,120 -7,173l7 -7c-2,-2 -4,-4 -6,-6 -40,-44 -38,-110 5,-147 42,-37 109,-31 149,14 32,35 28,63 28,102l35 0c0,-44 1,-74 -33,-112 -47,-53 -126,-60 -177,-16l0 0z"/>
   <path fill="white" d="M106 292c4,-3 6,-10 3,-16l46 -47 -53 38c-4,-3 -9,-3 -12,-1 -5,4 -6,12 -2,19 4,7 12,10 17,6l0 0z"/>
   <polygon fill="#BDBFC1" points="230,271 179,271 177,283 228,283 "/>
   <polygon fill="#BDBFC1" points="217,227 172,246 175,256 220,237 "/>
   <polygon fill="#BDBFC1" points="190,193 153,224 159,231 196,200 "/>
   <polygon fill="#BDBFC1" points="151,176 129,209 138,212 160,180 "/>
   <polygon fill="#BDBFC1" points="116,175 108,204 116,205 124,176 "/>
   <polygon fill="#BDBFC1" points="91,182 87,208 95,207 99,181 "/>
   <polygon fill="#BDBFC1" points="70,195 73,214 77,212 74,193 "/>
   <polygon fill="#BDBFC1" points="55,213 63,224 66,221 58,210 "/>
   <polygon fill="#BDBFC1" points="47,230 58,235 60,233 50,227 "/>
   <polygon fill="#BDBFC1" points="44,245 54,249 56,246 46,242 "/>
   <polygon fill="#BDBFC1" points="75,325 73,323 68,328 70,330 "/>
   <polygon fill="#BDBFC1" points="66,314 64,312 59,317 61,320 "/>
   <polygon fill="#BDBFC1" points="60,304 58,302 52,306 54,309 "/>
   <polygon fill="#BDBFC1" points="55,294 54,291 47,294 48,297 "/>
   <polygon fill="#BDBFC1" points="51,283 51,280 45,282 45,285 "/>
   <polygon fill="#BDBFC1" points="50,272 51,270 43,269 43,272 "/>
   <polygon fill="#BDBFC1" points="50,262 51,259 43,257 43,260 "/>
   <path fill="white" fill-rule="nonzero" d="M342 192c16,0 29,3 38,9 9,6 13,15 13,27 0,8 -2,14 -5,19 -4,5 -9,9 -15,11 2,3 5,6 7,9 2,4 5,7 7,11 2,4 5,8 7,12 2,4 4,8 6,12l-27 0c-2,-4 -4,-7 -6,-11 -2,-4 -4,-7 -6,-11 -2,-3 -4,-7 -6,-10 -2,-3 -4,-6 -6,-8l-12 0 0 40 -25 0 0 -108c5,-1 11,-2 17,-2 6,0 11,-1 15,-1l0 0zm1 21c-2,0 -3,0 -5,0 -1,0 -3,0 -4,0l0 30 7 0c9,0 16,-1 20,-3 4,-2 6,-6 6,-12 0,-5 -2,-9 -6,-11 -4,-2 -10,-3 -18,-3l0 0zm72 90l0 -109 74 0 0 21 -49 0 0 21 44 0 0 20 -44 0 0 26 53 0 0 21 -77 0 0 0zm169 0c-7,-12 -15,-25 -23,-37 -8,-12 -17,-24 -26,-35l0 72 -24 0 0 -109 20 0c3,3 7,8 12,13 4,5 8,10 13,16 4,6 9,12 13,18 4,6 8,12 12,18l0 -64 24 0 0 109 -21 0 0 0zm127 -109l0 21 -33 0 0 88 -25 0 0 -88 -33 0 0 -21 90 0 0 0zm103 111c-18,0 -31,-5 -41,-15 -9,-10 -14,-24 -14,-42 0,-9 1,-17 4,-24 3,-7 7,-13 12,-18 5,-5 11,-9 18,-11 7,-3 14,-4 22,-4 5,0 9,0 13,1 4,1 7,1 10,2 3,1 5,2 7,3 2,1 3,2 4,2l-7 20c-3,-2 -7,-3 -12,-5 -4,-1 -10,-2 -15,-2 -4,0 -7,1 -11,2 -4,1 -7,3 -10,6 -3,3 -5,6 -7,11 -2,4 -3,10 -3,16 0,5 1,10 2,14 1,4 3,8 5,11 2,3 6,6 10,7 4,2 9,3 14,3 4,0 7,0 10,-1 3,0 5,-1 8,-1 2,-1 4,-1 6,-2 2,-1 3,-1 5,-2l7 20c-3,2 -8,4 -15,6 -6,2 -14,3 -22,3l0 0zm130 -2c-1,-4 -3,-8 -4,-12 -1,-4 -3,-8 -4,-12l-43 0c-1,4 -3,8 -4,12 -1,4 -3,8 -4,12l-26 0c4,-12 8,-23 12,-33 4,-10 7,-19 11,-28 4,-9 7,-17 10,-25 3,-8 7,-16 11,-23l23 0c4,8 7,15 11,23 3,8 7,16 11,25 4,9 7,18 11,28 4,10 8,21 12,33l-26 0 0 0zm-30 -85c-1,2 -1,4 -2,6 -1,3 -2,6 -4,9 -1,4 -3,7 -5,12 -2,4 -3,9 -5,14l31 0c-2,-5 -3,-9 -5,-14 -2,-4 -3,-8 -4,-12 -1,-4 -3,-7 -4,-9 -1,-3 -2,-5 -3,-6l0 0zm102 -26c16,0 29,3 38,9 9,6 13,15 13,27 0,8 -2,14 -5,19 -4,5 -9,9 -15,11 2,3 5,6 7,9 2,4 5,7 7,11 2,4 5,8 7,12 2,4 4,8 6,12l-27 0c-2,-4 -4,-7 -6,-11 -2,-4 -4,-7 -6,-11 -2,-3 -4,-7 -6,-10 -2,-3 -4,-6 -6,-8l-12 0 0 40 -25 0 0 -108c5,-1 11,-2 17,-2 6,0 11,-1 15,-1l0 0zm1 21c-2,0 -3,0 -5,0 -1,0 -3,0 -4,0l0 30 7 0c9,0 16,-1 20,-3 4,-2 6,-6 6,-12 0,-5 -2,-9 -6,-11 -4,-2 -10,-3 -18,-3l0 0z"/>
   <path fill="#00AFEF" fill-rule="nonzero" d="M745 301c-1,-2 -2,-5 -3,-7 -1,-3 -2,-5 -3,-8l-27 0c-1,3 -2,5 -3,8 -1,3 -2,5 -2,7l-16 0c3,-8 5,-15 7,-21 2,-6 5,-12 7,-18 2,-6 4,-11 7,-16 2,-5 4,-10 7,-15l15 0c2,5 5,10 7,15 2,5 4,10 7,16 2,6 5,12 7,18 2,6 5,13 7,21l-17 0 0 0zm-19 -54c0,1 -1,2 -2,4 -1,2 -1,4 -2,6 -1,2 -2,5 -3,8 -1,3 -2,6 -3,9l20 0c-1,-3 -2,-6 -3,-9 -1,-3 -2,-5 -3,-8 -1,-2 -2,-4 -2,-6 -1,-2 -1,-3 -2,-4l0 0z"/>
   <path fill="white" fill-rule="nonzero" d="M105 330c7,0 13,1 17,4 4,3 6,7 6,13 0,6 -2,10 -6,13 -4,3 -10,4 -17,4l-3 0 0 16 -11 0 0 -48c2,0 5,-1 8,-1 3,0 5,0 7,0l0 0zm1 9c-1,0 -2,0 -2,0 -1,0 -1,0 -2,0l0 14 3 0c4,0 7,-1 9,-2 2,-1 3,-3 3,-6 0,-1 0,-2 -1,-3 -1,-1 -1,-2 -2,-2 -1,-1 -2,-1 -3,-1 -1,0 -3,0 -4,0l0 0zm44 -9c7,0 13,1 17,4 4,3 6,7 6,12 0,3 -1,6 -2,8 -2,2 -4,4 -7,5 1,1 2,3 3,4 1,2 2,3 3,5 1,2 2,4 3,5 1,2 2,4 3,5l-12 0c-1,-2 -2,-3 -3,-5 -1,-2 -2,-3 -3,-5 -1,-2 -2,-3 -3,-4 -1,-1 -2,-3 -3,-4l-5 0 0 18 -11 0 0 -48c2,0 5,-1 7,-1 3,0 5,0 7,0l0 0zm1 9c-1,0 -2,0 -2,0 -1,0 -1,0 -2,0l0 13 3 0c4,0 7,-1 9,-2 2,-1 3,-3 3,-5 0,-2 -1,-4 -3,-5 -2,-1 -4,-2 -8,-2zm32 -9l11 0 0 49 -11 0 0 -49zm49 32c0,2 0,5 -1,7 -1,2 -1,4 -3,6 -1,2 -3,3 -5,4 -2,1 -5,1 -9,1 -3,0 -6,0 -8,-1 -2,-1 -4,-2 -6,-3l4 -9c1,1 3,1 4,2 2,1 3,1 5,1 3,0 5,-1 6,-2 1,-1 2,-4 2,-7l0 -32 11 0 0 32 0 0zm11 16l0 -49 33 0 0 9 -22 0 0 10 20 0 0 9 -20 0 0 12 24 0 0 9 -35 0 0 0zm54 -9c1,0 1,0 2,0 1,0 1,0 2,0 6,0 10,-1 12,-4 3,-3 4,-7 4,-11 0,-5 -1,-9 -4,-12 -3,-3 -7,-4 -12,-4 -1,0 -2,0 -2,0 -1,0 -2,0 -2,0l0 31 0 0zm32 -16c0,4 -1,8 -2,11 -1,3 -3,6 -6,8 -2,2 -5,4 -9,5 -3,1 -7,2 -12,2 -2,0 -4,0 -7,0 -3,0 -5,-1 -8,-1l0 -48c3,0 5,-1 8,-1 3,0 5,0 7,0 4,0 8,0 11,1 3,1 6,2 9,4 2,2 4,5 6,8 1,3 2,7 2,11l0 0zm18 0c0,2 0,5 1,6 1,2 1,4 3,5 1,1 2,2 4,3 2,1 3,1 6,1 2,0 4,0 5,-1 2,-1 3,-2 4,-3 1,-1 2,-3 3,-5 1,-2 1,-4 1,-6 0,-2 0,-5 -1,-7 -1,-2 -1,-4 -3,-5 -1,-1 -2,-2 -4,-3 -2,-1 -3,-1 -5,-1 -2,0 -4,0 -6,1 -2,1 -3,2 -4,3 -1,1 -2,3 -3,5 -1,2 -1,4 -1,6zm37 0c0,4 -1,8 -2,11 -1,3 -3,6 -5,8 -2,2 -5,4 -8,5 -3,1 -6,2 -10,2 -3,0 -6,-1 -9,-2 -3,-1 -6,-3 -8,-5 -2,-2 -4,-5 -5,-8 -1,-3 -2,-7 -2,-11 0,-4 1,-8 2,-11 1,-3 3,-6 5,-8 2,-2 5,-4 8,-5 3,-1 6,-2 9,-2 3,0 6,1 9,2 3,1 6,3 8,5 2,2 4,5 5,8 1,3 2,7 2,11zm23 -25c7,0 13,1 17,4 4,3 6,7 6,12 0,3 -1,6 -2,8 -2,2 -4,4 -7,5 1,1 2,3 3,4 1,2 2,3 3,5 1,2 2,4 3,5 1,2 2,4 3,5l-12 0c-1,-2 -2,-3 -3,-5 -1,-2 -2,-3 -3,-5 -1,-2 -2,-3 -3,-4 -1,-1 -2,-3 -3,-4l-5 0 0 18 -11 0 0 -48c2,0 5,-1 7,-1 3,0 5,0 7,0l0 0zm1 9c-1,0 -2,0 -2,0 -1,0 -1,0 -2,0l0 13 3 0c4,0 7,-1 9,-2 2,-1 3,-3 3,-5 0,-2 -1,-4 -3,-5 -2,-1 -4,-2 -8,-2zm28 14l20 0 0 10 -20 0 0 -10zm57 26c-1,-2 -2,-3 -4,-5 -1,-2 -3,-4 -4,-6 -2,-2 -3,-4 -5,-5 -2,-2 -3,-3 -5,-5l0 21 -11 0 0 -49 11 0 0 18c3,-3 6,-6 9,-9 3,-3 6,-6 8,-9l13 0c-3,4 -7,8 -10,11 -3,4 -7,7 -11,11 4,3 8,7 11,12 4,4 7,9 10,15l-13 0 0 0zm25 -24c0,2 0,5 1,6 1,2 1,4 3,5 1,1 2,2 4,3 2,1 3,1 6,1 2,0 4,0 5,-1 2,-1 3,-2 4,-3 1,-1 2,-3 3,-5 1,-2 1,-4 1,-6 0,-2 0,-5 -1,-7 -1,-2 -1,-4 -3,-5 -1,-1 -2,-2 -4,-3 -2,-1 -3,-1 -5,-1 -2,0 -4,0 -6,1 -2,1 -3,2 -4,3 -1,1 -2,3 -3,5 -1,2 -1,4 -1,6zm37 0c0,4 -1,8 -2,11 -1,3 -3,6 -5,8 -2,2 -5,4 -8,5 -3,1 -6,2 -10,2 -3,0 -6,-1 -9,-2 -3,-1 -6,-3 -8,-5 -2,-2 -4,-5 -5,-8 -1,-3 -2,-7 -2,-11 0,-4 1,-8 2,-11 1,-3 3,-6 5,-8 2,-2 5,-4 8,-5 3,-1 6,-2 9,-2 3,0 6,1 9,2 3,1 6,3 8,5 2,2 4,5 5,8 1,3 2,7 2,11zm43 -17c-1,2 -3,4 -5,6 -2,2 -4,5 -6,8 -2,3 -4,6 -7,9 -2,3 -4,6 -6,9l25 0 0 9 -38 0 0 -7c1,-2 3,-5 5,-8 2,-3 4,-6 6,-9 2,-3 4,-6 6,-9 2,-3 4,-5 6,-7l-22 0 0 -9 37 0 0 8 0 0zm43 41c-1,-2 -1,-3 -2,-5 -1,-2 -1,-4 -2,-5l-19 0c-1,2 -1,4 -2,5 -1,2 -1,4 -2,5l-11 0c2,-5 4,-10 5,-15 2,-4 3,-9 5,-13 2,-4 3,-8 5,-11 2,-4 3,-7 5,-10l10 0c2,3 3,7 5,10 2,4 3,7 5,11 2,4 3,8 5,13 2,4 3,9 5,15l-12 0 0 0zm-13 -38c0,1 -1,2 -1,3 0,1 -1,3 -2,4 -1,2 -1,3 -2,5 -1,2 -1,4 -2,6l14 0c-1,-2 -1,-4 -2,-6 -1,-2 -1,-4 -2,-5 -1,-2 -1,-3 -2,-4 0,-1 -1,-2 -1,-3l0 0zm46 -12c7,0 13,1 17,4 4,3 6,7 6,12 0,3 -1,6 -2,8 -2,2 -4,4 -7,5 1,1 2,3 3,4 1,2 2,3 3,5 1,2 2,4 3,5 1,2 2,4 3,5l-12 0c-1,-2 -2,-3 -3,-5 -1,-2 -2,-3 -3,-5 -1,-2 -2,-3 -3,-4 -1,-1 -2,-3 -3,-4l-5 0 0 18 -11 0 0 -48c2,0 5,-1 7,-1 3,0 5,0 7,0l0 0zm1 9c-1,0 -2,0 -2,0 -1,0 -1,0 -2,0l0 13 3 0c4,0 7,-1 9,-2 2,-1 3,-3 3,-5 0,-2 -1,-4 -3,-5 -2,-1 -4,-2 -8,-2zm67 40c-1,-2 -1,-3 -2,-5 -1,-2 -1,-4 -2,-5l-19 0c-1,2 -1,4 -2,5 -1,2 -1,4 -2,5l-11 0c2,-5 4,-10 5,-15 2,-4 3,-9 5,-13 2,-4 3,-8 5,-11 2,-4 3,-7 5,-10l10 0c2,3 3,7 5,10 2,4 3,7 5,11 2,4 3,8 5,13 2,4 3,9 5,15l-12 0 0 0zm-13 -38c0,1 -1,2 -1,3 0,1 -1,3 -2,4 -1,2 -1,3 -2,5 -1,2 -1,4 -2,6l14 0c-1,-2 -1,-4 -2,-6 -1,-2 -1,-4 -2,-5 -1,-2 -1,-3 -2,-4 0,-1 -1,-2 -1,-3l0 0zm52 39c-8,0 -14,-2 -18,-7 -4,-4 -6,-11 -6,-19 0,-4 1,-8 2,-11 1,-3 3,-6 5,-8 2,-2 5,-4 8,-5 3,-1 6,-2 10,-2 2,0 4,0 6,0 2,0 3,1 4,1 1,0 2,1 3,1 1,0 1,1 2,1l-3 9c-1,-1 -3,-1 -5,-2 -2,-1 -4,-1 -7,-1 -2,0 -3,0 -5,1 -2,1 -3,1 -4,3 -1,1 -2,3 -3,5 -1,2 -1,4 -1,7 0,2 0,4 1,6 1,2 1,4 2,5 1,1 3,3 4,3 2,1 4,1 6,1 2,0 3,0 4,0 1,0 2,0 3,-1 1,0 2,-1 3,-1 1,0 1,-1 2,-1l3 9c-2,1 -4,2 -7,3 -3,1 -6,1 -10,1l0 0z"/>
   <path fill="#00AFEF" d="M1049 177c-97,15 -179,-10 -256,-44 81,31 165,50 256,44z"/>
  </g>
 </g>
</svg>
