<?xml version="1.0" encoding="UTF-8"?>
<!DOCTYPE svg PUBLIC "-//W3C//DTD SVG 1.1//EN" "http://www.w3.org/Graphics/SVG/1.1/DTD/svg11.dtd">
<!-- Creator: CorelDRAW X6 -->
<svg xmlns="http://www.w3.org/2000/svg" xml:space="preserve" width="1104px" height="346px" version="1.1" shape-rendering="geometricPrecision" text-rendering="geometricPrecision" image-rendering="optimizeQuality" fill-rule="evenodd" clip-rule="evenodd"
viewBox="0 0 416 130"
 xmlns:xlink="http://www.w3.org/1999/xlink">
 <g id="Layer_x0020_1">
  <metadata id="CorelCorpID_0Corel-Layer"/>
  <g id="_161602208">
   <path fill="#00AFEF" d="M306 121c-13,-13 -10,-37 7,-53l2 2c-1,1 -2,1 -2,2 -15,14 -17,34 -6,45 11,11 32,9 47,-4 8,-8 13,-18 13,-27l11 0c-1,10 -6,21 -15,30 -17,16 -42,19 -55,5l0 0z"/>
   <path fill="#00AFEF" d="M110 29c66,-23 122,-3 176,28 -56,-27 -114,-41 -176,-28z"/>
   <path fill="white" d="M13 40c49,-19 83,-10 109,14 -24,-20 -64,-26 -109,-14z"/>
   <path fill="white" d="M44 27c20,-2 39,-4 70,-13 54,-18 122,-12 175,19 -6,1 -12,1 -18,2 66,2 127,6 146,32 -6,-8 4,-30 -116,-34 -22,-8 -94,-55 -188,-23 -24,8 -45,11 -68,17z"/>
   <path fill="#00AFEF" d="M15 54c-19,17 -20,46 -3,67l3 -3c-1,-1 -2,-2 -2,-2 -15,-17 -15,-43 2,-57 16,-14 42,-12 57,5 12,14 11,24 11,40l13 0c0,-17 0,-29 -13,-43 -18,-20 -49,-23 -68,-6l0 0z"/>
   <path fill="#373435" d="M27 100c2,-1 2,-4 1,-6l18 -18 -20 15c-2,-1 -3,-1 -5,0 -2,1 -2,5 -1,7 2,3 5,4 7,2l0 0z"/>
   <polygon fill="#BDBFC1" points="75,92 55,92 55,96 75,96 "/>
   <polygon fill="#BDBFC1" points="70,75 53,82 54,86 71,78 "/>
   <polygon fill="#BDBFC1" points="60,61 46,73 48,76 62,64 "/>
   <polygon fill="#BDBFC1" points="45,55 36,68 40,69 48,56 "/>
   <polygon fill="#BDBFC1" points="31,55 28,66 31,66 34,55 "/>
   <polygon fill="#BDBFC1" points="22,57 20,67 23,67 25,57 "/>
   <polygon fill="#BDBFC1" points="14,62 15,70 16,69 15,61 "/>
   <polygon fill="#BDBFC1" points="8,69 11,74 12,72 9,68 "/>
   <polygon fill="#BDBFC1" points="5,76 9,78 10,77 6,75 "/>
   <polygon fill="#BDBFC1" points="4,82 7,83 8,82 4,80 "/>
   <polygon fill="#BDBFC1" points="15,112 15,112 13,114 13,114 "/>
   <polygon fill="#BDBFC1" points="12,108 11,107 9,110 10,110 "/>
   <polygon fill="#BDBFC1" points="10,104 9,103 7,105 7,106 "/>
   <polygon fill="#BDBFC1" points="8,100 7,99 5,101 5,102 "/>
   <polygon fill="#BDBFC1" points="6,96 6,95 4,96 4,97 "/>
   <polygon fill="#BDBFC1" points="6,92 6,91 3,91 3,92 "/>
   <polygon fill="#BDBFC1" points="6,88 6,87 3,86 3,87 "/>
   <path fill="#00AFEF" d="M391 55c-37,6 -69,-4 -99,-17 31,12 64,19 99,17z"/>
   <path fill="white" d="M106 98c63,-30 121,-16 178,9 -58,-21 -117,-28 -178,-9z"/>
  </g>
 </g>
</svg>
