<?xml version="1.0" encoding="UTF-8"?>
<!DOCTYPE svg PUBLIC "-//W3C//DTD SVG 1.1//EN" "http://www.w3.org/Graphics/SVG/1.1/DTD/svg11.dtd">
<!-- Creator: CorelDRAW X6 -->
<svg xmlns="http://www.w3.org/2000/svg" xml:space="preserve" width="4326px" height="1434px" version="1.1" shape-rendering="geometricPrecision" text-rendering="geometricPrecision" image-rendering="optimizeQuality" fill-rule="evenodd" clip-rule="evenodd"
viewBox="0 0 1025 340"
 xmlns:xlink="http://www.w3.org/1999/xlink">
 <g id="Layer_x0020_1">
  <metadata id="CorelCorpID_0Corel-Layer"/>
  <path fill="#00AFEF" d="M753 317c-32,-33 -25,-91 17,-131l5 6c-2,2 -4,3 -6,5 -36,34 -43,84 -15,112 28,28 79,24 115,-10 20,-19 31,-43 32,-66l27 0c-2,26 -15,52 -38,73 -43,40 -104,46 -137,12l0 0 0 -1z"/>
  <path fill="#00AFEF" d="M271 71c164,-57 302,-8 433,69 -137,-67 -280,-102 -433,-69z"/>
  <path fill="white" d="M31 98c120,-46 205,-26 269,34 -60,-50 -158,-64 -269,-34z"/>
  <path fill="white" d="M107 68c49,-6 95,-10 172,-32 134,-46 300,-30 431,48 -15,2 -30,3 -45,5 163,5 312,16 359,78 -14,-20 10,-73 -286,-83 -55,-18 -230,-134 -464,-56 -59,19 -111,28 -167,41l0 0z"/>
  <path fill="#00AFEF" d="M38 133c-48,41 -50,114 -7,165l7 -7c-2,-2 -4,-4 -6,-6 -38,-42 -36,-105 5,-140 40,-35 104,-30 142,13 30,33 27,60 27,97l33 0c0,-42 1,-70 -31,-107 -45,-50 -120,-57 -168,-15l0 0 -1 -1z"/>
  <path fill="white" d="M67 246c4,-3 6,-10 3,-15l44 -45 -50 36c-4,-3 -9,-3 -11,-1 -5,4 -6,11 -2,18 4,7 11,10 16,6l0 0 1 1z"/>
  <polygon fill="#BDBFC1" points="185,226 137,226 135,237 183,237 "/>
  <polygon fill="#BDBFC1" points="173,184 130,202 133,211 176,193 "/>
  <polygon fill="#BDBFC1" points="147,151 112,181 118,188 153,158 "/>
  <polygon fill="#BDBFC1" points="110,135 89,167 98,169 119,139 "/>
  <polygon fill="#BDBFC1" points="77,134 69,162 77,163 84,135 "/>
  <polygon fill="#BDBFC1" points="53,141 49,166 57,165 61,140 "/>
  <polygon fill="#BDBFC1" points="33,153 36,171 40,169 37,151 "/>
  <polygon fill="#BDBFC1" points="19,170 26,181 29,178 22,168 "/>
  <polygon fill="#BDBFC1" points="11,187 22,191 23,189 14,184 "/>
  <polygon fill="#BDBFC1" points="8,201 18,205 20,202 10,198 "/>
  <polygon fill="#BDBFC1" points="38,277 36,275 31,280 33,282 "/>
  <polygon fill="#BDBFC1" points="29,267 27,265 22,269 24,272 "/>
  <polygon fill="#BDBFC1" points="23,257 22,255 16,259 18,262 "/>
  <polygon fill="#BDBFC1" points="19,247 18,245 11,247 12,250 "/>
  <polygon fill="#BDBFC1" points="15,237 15,234 9,236 9,239 "/>
  <polygon fill="#BDBFC1" points="14,227 15,225 7,224 7,227 "/>
  <polygon fill="#BDBFC1" points="14,217 15,214 7,212 7,215 "/>
  <path fill="#00AFEF" d="M965 136c-92,14 -170,-10 -244,-42 77,30 157,48 244,42z"/>
  <path fill="#FEFEFE" fill-rule="nonzero" d="M641 142l36 0c1,0 2,1 3,2 1,1 1,2 1,3l4 107c0,2 0,3 1,3 0,0 0,0 1,1 1,0 1,1 1,1l-25 0c-1,0 -2,-1 -3,-1 -1,-1 -1,-2 -1,-3l0 -25 -38 0 11 -19 27 0 -1 -46 -47 84c0,1 -1,2 -1,3 0,1 0,2 1,4 0,1 2,1 3,2l-23 0c-1,0 -2,0 -2,0 -1,0 -1,0 -2,-1 0,0 -1,-1 -1,-1 0,-1 -1,-2 -1,-2 0,-1 0,-1 1,-2 0,-1 1,-1 1,-1l57 -102c0,-1 0,-1 0,-2 0,-1 0,-2 0,-2 0,0 0,-1 -1,-1 0,-1 -1,-1 -2,-1zm81 2c-1,-1 -2,-2 -3,-2l26 0c1,0 2,0 3,1 0,1 1,3 1,3l-18 78c0,2 -1,4 -1,5 0,1 0,3 1,4 1,2 2,3 5,4 2,1 5,1 9,1 3,0 6,0 9,-1 3,-1 5,-2 6,-3 1,-1 2,-2 2,-3 0,0 1,-2 1,-3l18 -83c0,-1 0,-2 -1,-3 0,0 -1,-1 -1,-1 -1,0 -1,-1 -2,-1l26 0c0,0 1,0 2,1 1,0 1,1 1,1 1,2 1,3 1,4l-20 88c-1,4 -2,7 -3,8 -1,2 -1,3 -2,4 -1,1 -2,2 -4,3 -2,2 -5,3 -8,4 -3,1 -7,2 -12,2 -4,0 -9,1 -14,1 -1,0 -4,0 -6,0 -3,0 -5,0 -6,0 -6,0 -12,-1 -16,-2 -4,-1 -7,-4 -10,-9 -1,-3 -2,-6 -2,-9 0,-3 1,-7 2,-12l18 -79c0,0 0,-1 0,-2 0,-1 0,-2 -1,-2zm92 21c0,1 -1,1 -2,2l4 -18c0,-1 1,-2 2,-3 1,0 2,-1 3,-1l70 0c3,0 5,0 6,-1 0,0 1,0 1,-1 0,-1 1,-1 1,-1l1 0 -4 18c-1,2 -2,3 -2,3 -1,1 -3,1 -4,1l-25 0 -20 91c0,0 0,1 0,1 0,1 0,1 0,1 0,0 1,0 2,1 1,0 1,1 1,1l-27 0c0,0 -1,0 -1,-1 -1,-1 -1,-1 -1,-1 -1,0 -1,-1 -1,-3l21 -91 -22 0c-2,0 -3,0 -4,1zm164 81c-5,4 -11,8 -18,10 -7,2 -13,3 -20,3 -7,0 -14,-1 -20,-3 -6,-2 -10,-5 -13,-9 -3,-5 -5,-13 -5,-24 0,-5 0,-10 1,-16 1,-5 2,-11 4,-17 2,-6 4,-11 6,-16 2,-5 5,-10 9,-15 3,-5 7,-8 12,-11 5,-3 9,-4 14,-5 5,-1 9,-1 12,-1l0 20c-2,0 -4,0 -6,0 -2,0 -4,1 -6,2 -2,1 -4,3 -6,6 -3,4 -6,9 -8,16 -2,7 -4,13 -6,20 -1,7 -2,12 -2,16 0,5 2,9 5,12 3,3 7,4 12,4 3,0 7,-1 9,-2 3,-1 5,-3 7,-5 4,-6 8,-14 11,-25 3,-10 5,-20 5,-28 0,-5 -1,-8 -2,-11 -2,-4 -6,-6 -14,-6l0 -20c8,0 14,1 19,2 5,1 10,4 14,8 4,4 7,11 7,19 0,7 -1,16 -3,26 -2,10 -4,19 -8,28 -4,9 -8,15 -13,19z"/>
  <path fill="#FEFEFE" fill-rule="nonzero" d="M492 144c-1,-1 -3,-1 -4,-1l27 0c2,0 3,0 4,1 0,1 0,2 0,4l-21 89 49 0c2,0 3,-1 3,-1 0,0 1,0 2,-1 0,0 1,-1 2,-1 1,-1 1,-1 1,-2l-8 21c0,1 -1,2 -3,3 0,0 0,0 -1,1 0,0 -1,1 -1,1 0,0 -1,0 -1,0 0,0 -1,0 -3,0l-41 0c0,0 1,0 1,0l-26 0c-2,0 -3,0 -4,-1 0,0 0,0 -1,-1 0,0 -1,-1 -1,-1 0,0 0,-1 0,-1 0,0 0,-1 0,-3l24 -104c0,-1 0,-2 0,-2 0,-1 0,-2 -1,-2zm-210 0c-1,-1 -2,-1 -4,-2l58 0c7,0 13,2 16,5 3,3 5,9 5,16 0,6 -1,12 -3,19 -2,7 -4,12 -6,15 -2,3 -5,6 -8,7 -3,1 -8,2 -12,3l8 27c1,1 1,2 2,3 0,0 1,0 1,1 1,1 1,1 2,1l6 0 -4 15c0,1 -1,2 -2,3 -1,0 -2,1 -4,1l-17 0c-2,0 -3,0 -4,-1 -1,-1 -2,-2 -3,-3l-11 -46 -10 0 4 -18 18 0c3,0 6,-1 8,-2 3,-1 5,-4 6,-7 1,-3 2,-7 2,-11 0,-4 -1,-7 -3,-9 -1,-1 -4,-2 -7,-2l-18 0 -21 93c0,1 0,2 1,4 0,0 0,1 1,1 0,0 1,0 1,1 1,0 1,0 1,1l-26 0c-1,0 -2,0 -4,-1 -1,0 -1,-2 -1,-4l24 -103c0,-1 0,-1 0,-2 0,-1 0,-1 0,-1 0,-1 0,-2 -1,-2zm124 -2l36 0c1,0 2,1 3,2 1,1 1,2 1,3l4 107c0,2 0,3 1,3 0,0 0,0 1,1 1,0 1,1 1,1l-25 0c-1,0 -2,-1 -3,-1 -1,-1 -1,-2 -1,-3l0 -25 -38 0 11 -19 27 0 -1 -46 -47 84c0,1 -1,2 -1,3 0,1 0,2 1,4 0,1 2,1 3,2l-23 0c-1,0 -2,0 -2,0 -1,0 -1,0 -2,-1 0,0 -1,-1 -1,-1 0,-1 -1,-2 -1,-2 0,-1 0,-1 1,-2 0,-1 1,-1 1,-1l57 -102c0,-1 0,-1 0,-2 0,-1 0,-2 0,-2 0,0 0,-1 -1,-1 0,-1 -1,-1 -2,-1z"/>
 </g>
</svg>
