<?xml version="1.0" encoding="UTF-8"?>
<!DOCTYPE svg PUBLIC "-//W3C//DTD SVG 1.1//EN" "http://www.w3.org/Graphics/SVG/1.1/DTD/svg11.dtd">
<!-- Creator: CorelDRAW X6 -->
<svg xmlns="http://www.w3.org/2000/svg" xml:space="preserve" width="4593px" height="1662px" version="1.1" shape-rendering="geometricPrecision" text-rendering="geometricPrecision" image-rendering="optimizeQuality" fill-rule="evenodd" clip-rule="evenodd"
viewBox="0 0 1141 413"
 xmlns:xlink="http://www.w3.org/1999/xlink">
 <g id="Layer_x0020_1">
  <metadata id="CorelCorpID_0Corel-Layer"/>
  <path fill="black" fill-opacity="0.600000" stroke="black" stroke-width="0.586344" stroke-opacity="0.600000" d="M25 135c80,-43 298,-129 481,-135 114,2 231,68 327,82 93,11 263,26 299,74 28,42 -25,202 -78,211 -63,9 -142,44 -225,46l-772 -5c-55,-1 -80,-245 -33,-271l0 -1z"/>
  <path fill="#00AFEF" d="M824 366c-34,-35 -26,-96 18,-138l5 6c-2,2 -4,3 -6,5 -38,36 -45,88 -16,118 29,29 83,25 121,-11 21,-20 33,-45 34,-69l28 0c-2,27 -16,55 -40,77 -45,42 -109,48 -144,13l0 0 0 -1z"/>
  <path fill="#00AFEF" d="M318 108c172,-60 316,-8 454,72 -144,-70 -293,-107 -454,-72z"/>
  <path fill="white" d="M66 136c126,-48 215,-27 282,36 -63,-53 -166,-67 -282,-36z"/>
  <path fill="white" d="M146 104c52,-6 100,-10 181,-34 141,-48 314,-31 452,50 -16,2 -31,3 -47,5 171,5 327,17 376,82 -15,-21 11,-77 -300,-87 -58,-19 -241,-141 -487,-59 -62,20 -117,29 -175,43l0 0z"/>
  <path fill="#00AFEF" d="M73 173c-50,43 -53,120 -7,173l7 -7c-2,-2 -4,-4 -6,-6 -40,-44 -38,-110 5,-147 42,-37 109,-31 149,14 32,35 28,63 28,102l35 0c0,-44 1,-74 -33,-112 -47,-53 -126,-60 -177,-16l0 0 -1 -1z"/>
  <path fill="white" d="M104 291c4,-3 6,-10 3,-16l46 -47 -53 38c-4,-3 -9,-3 -12,-1 -5,4 -6,12 -2,19 4,7 12,10 17,6l0 0 1 1z"/>
  <polygon fill="#BDBFC1" points="228,270 177,270 175,282 226,282 "/>
  <polygon fill="#BDBFC1" points="215,226 170,245 173,255 218,236 "/>
  <polygon fill="#BDBFC1" points="188,192 151,223 157,230 194,199 "/>
  <polygon fill="#BDBFC1" points="149,175 127,208 136,211 158,179 "/>
  <polygon fill="#BDBFC1" points="114,174 106,203 114,204 122,175 "/>
  <polygon fill="#BDBFC1" points="89,181 85,207 93,206 97,180 "/>
  <polygon fill="#BDBFC1" points="68,194 71,213 75,211 72,192 "/>
  <polygon fill="#BDBFC1" points="53,212 61,223 64,220 56,209 "/>
  <polygon fill="#BDBFC1" points="45,229 56,234 58,232 48,226 "/>
  <polygon fill="#BDBFC1" points="42,244 52,248 54,245 44,241 "/>
  <polygon fill="#BDBFC1" points="73,324 71,322 66,327 68,329 "/>
  <polygon fill="#BDBFC1" points="64,313 62,311 57,316 59,319 "/>
  <polygon fill="#BDBFC1" points="58,303 56,301 50,305 52,308 "/>
  <polygon fill="#BDBFC1" points="53,293 52,290 45,293 46,296 "/>
  <polygon fill="#BDBFC1" points="49,282 49,279 43,281 43,284 "/>
  <polygon fill="#BDBFC1" points="48,271 49,269 41,268 41,271 "/>
  <polygon fill="#BDBFC1" points="48,261 49,258 41,256 41,259 "/>
  <path fill="#00AFEF" d="M1045 176c-97,15 -179,-10 -255,-44 81,31 165,50 255,44z"/>
  <path fill="#FEFEFE" fill-rule="nonzero" d="M105 324c0,0 -1,0 -1,-1l19 0c2,0 4,1 5,2 1,1 2,3 2,5 0,2 0,4 -1,6 -1,2 -1,4 -2,5 -1,1 -2,2 -3,2 -1,0 -2,1 -4,1l3 8c0,0 0,1 1,1 0,0 0,0 0,0 0,0 0,0 1,0l2 0 -1 5c0,0 0,1 -1,1 0,0 -1,0 -1,0l-6 0c-1,0 -1,0 -1,0 0,0 -1,-1 -1,-1l-4 -15 -3 0 1 -6 6 0c1,0 2,0 3,-1 1,0 2,-1 2,-2 0,-1 1,-2 1,-3 0,-1 0,-2 -1,-3 0,0 -1,-1 -2,-1l-6 0 -7 30c0,0 0,1 0,1 0,0 0,0 0,0 0,0 0,0 0,0 0,0 0,0 0,0l-9 0c0,0 -1,0 -1,0 0,0 0,-1 0,-1l8 -33c0,0 0,0 0,-1 0,0 0,0 0,0 0,0 0,-1 0,-1zm38 0c0,0 0,0 0,0 0,0 0,0 -1,0l24 0 -1 5c0,0 0,1 0,1 0,0 -1,0 -1,0l-13 0 -2 8 13 0 -1 5c0,0 0,1 0,1 0,0 -1,0 -1,0l-10 0c-1,0 -1,0 -2,0 0,0 -1,1 -1,2l-2 9 13 0c1,0 1,0 2,0 0,0 0,0 0,-1 0,0 0,-1 0,-1l1 0 -1 6c0,1 0,1 -1,1 0,0 0,0 -1,0 0,0 0,0 -1,0 0,0 -1,0 -1,0l-19 0c-1,0 -1,0 -1,-1 0,0 0,-1 0,-1 0,0 0,0 0,-1l8 -33c0,0 0,-1 0,-1zm34 0c0,0 0,0 0,0 0,0 0,0 0,0 0,0 0,0 0,0l8 0c1,0 1,0 2,1 0,0 0,0 1,1l7 17 4 -17c0,0 0,-1 0,-1 0,0 0,0 0,0 0,0 0,0 -1,0 0,0 0,0 -1,0l7 0c1,0 1,0 2,1 0,0 0,1 0,1l-8 35 -3 0c0,0 -1,0 -2,-1 0,0 -1,-1 -1,-1l-7 -21 -5 20c0,1 0,1 0,2 0,0 0,0 1,0 0,0 1,0 1,0l-8 0c0,0 0,0 -1,0 0,0 0,0 -1,0 0,-1 0,-1 0,-1l8 -33c0,-1 0,-1 0,-1zm30 6c0,0 0,0 -1,1l1 -6c0,0 0,-1 1,-1 0,0 1,0 1,0l23 0c1,0 2,0 2,0 0,0 0,0 0,0 0,0 0,0 0,0l0 0 -1 6c0,1 0,1 -1,1 0,0 -1,0 -1,0l-8 0 -7 29c0,0 0,0 0,0 0,0 0,0 0,0 0,0 0,0 1,0 0,0 0,0 0,0l-9 0c0,0 0,0 0,0 0,0 0,0 0,0 0,0 0,0 0,-1l7 -29 -7 0c-1,0 -1,0 -1,0z"/>
  <path fill="#00AFEF" fill-rule="nonzero" d="M260 324l12 0c0,0 1,0 1,1 0,0 0,1 0,1l1 34c0,1 0,1 0,1 0,0 0,0 0,0 0,0 0,0 0,0l-8 0c0,0 -1,0 -1,0 0,0 0,-1 0,-1l0 -8 -13 0 3 -6 9 0 0 -15 -15 27c0,0 0,1 0,1 0,0 0,1 0,1 0,0 1,0 1,1l-8 0c0,0 -1,0 -1,0 0,0 0,0 -1,0 0,0 0,0 0,0 0,0 0,-1 0,-1 0,0 0,0 0,-1 0,0 0,0 0,0l19 -33c0,0 0,0 0,-1 0,0 0,0 0,-1 0,0 0,0 0,0 0,0 0,0 0,0z"/>
  <path fill="#FEFEFE" fill-rule="nonzero" d="M324 324c0,1 0,2 -1,3 0,1 0,2 0,2 0,0 0,1 -1,1 0,0 -1,0 -2,0l-7 0c-1,0 -1,0 -2,0 0,0 -1,0 -1,1 -1,1 -1,2 -2,4 -1,2 -1,4 -2,6 -1,2 -1,5 -1,7 0,2 0,4 0,5 0,1 0,1 1,1 1,0 1,0 2,0l10 0c0,0 1,0 2,-1 1,0 1,-1 1,-2l1 0 -1 7c0,0 0,0 0,1 0,0 0,0 -1,1 -1,1 -1,1 -2,1l-14 0c-1,0 -3,0 -4,-1 -1,0 -2,-1 -3,-2 0,0 0,-1 0,-2 0,-2 0,-6 1,-11 1,-5 2,-9 3,-13 1,-4 3,-7 4,-8 1,0 1,-1 3,-1 1,0 2,0 4,0l14 0zm14 0l12 0c0,0 1,0 1,1 0,0 0,1 0,1l1 34c0,1 0,1 0,1 0,0 0,0 0,0 0,0 0,0 0,0l-8 0c0,0 -1,0 -1,0 0,0 0,-1 0,-1l0 -8 -13 0 3 -6 9 0 0 -15 -15 27c0,0 0,1 0,1 0,0 0,1 0,1 0,0 1,0 1,1l-8 0c0,0 -1,0 -1,0 0,0 0,0 -1,0 0,0 0,0 0,0 0,0 0,-1 0,-1 0,0 0,0 0,-1 0,0 0,0 0,0l19 -33c0,0 0,0 0,-1 0,0 0,0 0,-1 0,0 0,0 0,0 0,0 0,0 0,0zm28 1c0,0 -1,0 -1,-1l19 0c2,0 4,1 5,2 1,1 2,3 2,5 0,2 0,4 -1,6 -1,2 -1,4 -2,5 -1,1 -2,2 -3,2 -1,0 -2,1 -4,1l3 8c0,0 0,1 1,1 0,0 0,0 0,0 0,0 0,0 1,0l2 0 -1 5c0,0 0,1 -1,1 0,0 -1,0 -1,0l-6 0c-1,0 -1,0 -1,0 0,0 -1,-1 -1,-1l-4 -15 -3 0 1 -6 6 0c1,0 2,0 3,-1 1,0 2,-1 2,-2 0,-1 1,-2 1,-3 0,-1 0,-2 -1,-3 0,0 -1,-1 -2,-1l-6 0 -7 30c0,0 0,1 0,1 0,0 0,0 0,0 0,0 0,0 0,0 0,0 0,0 0,0l-9 0c0,0 -1,0 -1,0 0,0 0,-1 0,-1l8 -33c0,0 0,0 0,-1 0,0 0,0 0,0 0,0 0,-1 0,-1z"/>
  <path fill="#FEFEFE" fill-rule="nonzero" d="M419 325c0,0 0,0 -1,-1 0,0 -1,0 -1,0l19 0c2,0 4,1 6,2 1,1 2,3 2,6 0,1 0,3 0,5 0,2 -1,3 -1,5 -1,1 -1,3 -2,4 -1,1 -2,2 -3,2 -1,0 -1,1 -2,1 -1,0 -1,0 -2,1 -1,0 -2,0 -3,0l-9 0 2 -6 5 0c1,0 2,-1 3,-1 1,0 1,-1 1,-2 0,-1 1,-2 1,-3 0,-1 0,-2 0,-3 0,-1 0,-2 0,-2 -1,-1 -1,-1 -2,-1l-5 0 -7 29c0,1 0,1 0,2 0,0 1,0 2,1l-9 0c-1,0 -1,0 -1,-1 0,0 0,-1 0,-1 0,0 0,0 0,-1l8 -32c0,0 0,-1 0,-1 0,0 0,0 0,0 0,0 0,0 0,0 0,0 0,0 0,0zm36 0c0,0 -1,0 -1,-1l19 0c2,0 4,1 5,2 1,1 2,3 2,5 0,2 0,4 -1,6 -1,2 -1,4 -2,5 -1,1 -2,2 -3,2 -1,0 -2,1 -4,1l3 8c0,0 0,1 1,1 0,0 0,0 0,0 0,0 0,0 1,0l2 0 -1 5c0,0 0,1 -1,1 0,0 -1,0 -1,0l-6 0c-1,0 -1,0 -1,0 0,0 -1,-1 -1,-1l-4 -15 -3 0 1 -6 6 0c1,0 2,0 3,-1 1,0 2,-1 2,-2 0,-1 1,-2 1,-3 0,-1 0,-2 -1,-3 0,0 -1,-1 -2,-1l-6 0 -7 30c0,0 0,1 0,1 0,0 0,0 0,0 0,0 0,0 0,0 0,0 0,0 0,0l-9 0c0,0 -1,0 -1,0 0,0 0,-1 0,-1l8 -33c0,0 0,0 0,-1 0,0 0,0 0,0 0,0 0,-1 0,-1zm39 0c0,0 -1,0 -1,0l9 0c1,0 1,0 1,0 0,0 0,1 0,1l-8 33c0,1 0,1 0,1 0,0 0,0 0,0 0,0 0,0 0,0 0,0 0,0 1,0l-9 0c-1,0 -1,0 -1,0 0,0 0,0 0,0 0,0 0,0 0,0 0,0 0,0 0,0 0,0 0,0 0,-1l8 -33c0,0 0,0 0,-1 0,0 0,-1 0,-1zm24 5l1 -6 13 0c0,0 0,0 0,0 0,0 0,0 0,0 0,0 0,1 0,2l-7 32c0,1 -1,1 -1,2 -1,0 -1,1 -1,1 0,0 -1,0 -1,0l-14 0c0,0 0,0 -1,0 0,0 0,0 0,0 0,0 0,0 0,0 0,0 0,-1 0,-1l2 -6 0 0c0,0 0,1 0,1 0,0 1,1 2,1l5 0c1,0 1,0 2,0 0,0 1,-1 1,-2l5 -22c0,-1 0,-1 0,-1 0,0 0,0 -1,0l-5 0zm27 -5c0,0 0,0 0,0 0,0 0,0 -1,0l24 0 -1 5c0,0 0,1 0,1 0,0 -1,0 -1,0l-13 0 -2 8 13 0 -1 5c0,0 0,1 0,1 0,0 -1,0 -1,0l-10 0c-1,0 -1,0 -2,0 0,0 -1,1 -1,2l-2 9 13 0c1,0 1,0 2,0 0,0 0,0 0,-1 0,0 0,-1 0,-1l1 0 -1 6c0,1 0,1 -1,1 0,0 0,0 -1,0 0,0 0,0 -1,0 0,0 -1,0 -1,0l-19 0c-1,0 -1,0 -1,-1 0,0 0,-1 0,-1 0,0 0,0 0,-1l8 -33c0,0 0,-1 0,-1zm34 0c0,-1 -1,-1 -2,-1l19 0c1,0 3,0 3,0 1,0 1,0 2,1 0,0 1,1 2,2 1,1 1,2 2,3 0,1 1,3 1,5 0,2 0,3 0,5 0,2 -1,4 -1,6 -1,2 -1,4 -2,6 -1,2 -2,4 -3,5 -1,1 -2,2 -3,3 -2,1 -3,1 -4,1l-12 0 1 -6 6 0c1,0 2,0 3,0 1,0 1,0 2,-1 1,-1 2,-3 3,-5 1,-2 1,-4 2,-6 0,-2 1,-4 1,-6 0,-2 0,-3 0,-4 0,-2 -1,-3 -4,-3l-6 0 -7 31 -7 0c-1,0 -1,0 -2,0 0,0 0,0 0,-1 0,0 0,0 0,-1 0,0 0,-1 0,-1l8 -33c0,0 0,-1 0,-1zm56 32c-2,1 -4,2 -6,3 -2,1 -4,1 -7,1 -2,0 -5,0 -7,-1 -2,-1 -3,-2 -4,-3 -1,-2 -2,-4 -2,-8 0,-2 0,-3 0,-5 0,-2 1,-3 1,-5 1,-2 1,-4 2,-5 1,-2 2,-3 3,-5 1,-1 2,-3 4,-3 2,-1 3,-1 5,-2 1,0 3,0 4,0l0 6c-1,0 -1,0 -2,0 -1,0 -1,0 -2,1 -1,0 -1,1 -2,2 -1,1 -2,3 -3,5 -1,2 -1,4 -2,6 0,2 -1,4 -1,5 0,2 1,3 2,4 1,1 2,1 4,1 1,0 2,0 3,-1 1,0 2,-1 2,-2 1,-2 3,-5 4,-8 1,-3 2,-6 2,-9 0,-1 0,-3 -1,-4 -1,-1 -2,-2 -4,-2l0 -6c2,0 5,0 6,1 2,0 3,1 5,3 1,1 2,3 2,6 0,2 0,5 -1,8 -1,3 -1,6 -3,9 -1,3 -3,5 -4,6zm20 -32c0,0 -1,0 -1,-1l19 0c2,0 4,1 5,2 1,1 2,3 2,5 0,2 0,4 -1,6 -1,2 -1,4 -2,5 -1,1 -2,2 -3,2 -1,0 -2,1 -4,1l3 8c0,0 0,1 1,1 0,0 0,0 0,0 0,0 0,0 1,0l2 0 -1 5c0,0 0,1 -1,1 0,0 -1,0 -1,0l-6 0c-1,0 -1,0 -1,0 0,0 -1,-1 -1,-1l-4 -15 -3 0 1 -6 6 0c1,0 2,0 3,-1 1,0 2,-1 2,-2 0,-1 1,-2 1,-3 0,-1 0,-2 -1,-3 0,0 -1,-1 -2,-1l-6 0 -7 30c0,0 0,1 0,1 0,0 0,0 0,0 0,0 0,0 0,0 0,0 0,0 0,0l-9 0c0,0 -1,0 -1,0 0,0 0,-1 0,-1l8 -33c0,0 0,0 0,-1 0,0 0,0 0,0 0,0 0,-1 0,-1z"/>
  <polygon fill="#FEFEFE" fill-rule="nonzero" points="693,351 681,351 682,346 694,346 "/>
  <path fill="#FEFEFE" fill-rule="nonzero" d="M706 324c0,0 -1,-1 -1,-1l8 0c1,0 1,0 1,1 0,1 0,1 0,1l-2 10 11 -9c0,-1 1,-1 1,-2 0,0 0,0 -1,-1 0,0 -1,0 -1,0l10 0c0,0 0,0 1,0 0,0 0,0 0,0 0,0 0,1 0,1 0,0 0,1 0,1l-11 10 4 17c0,1 0,1 0,1 0,0 0,0 0,0 0,0 0,0 0,0 0,0 0,0 0,0l3 0 -1 5c0,0 0,0 0,1 0,0 0,0 0,0 -1,0 -1,0 -1,0l-6 0c-1,0 -1,0 -2,0 0,0 -1,-1 -1,-1l-4 -17 -4 3 -3 13c0,1 0,1 0,1 0,0 0,0 1,1 0,0 1,0 1,0l-9 0c0,0 -1,0 -1,0 0,0 0,0 0,0 0,0 0,0 0,-1 0,0 0,-1 0,-1l8 -33c0,0 0,-1 0,-1zm55 32c-2,1 -4,2 -6,3 -2,1 -4,1 -7,1 -2,0 -5,0 -7,-1 -2,-1 -3,-2 -4,-3 -1,-2 -2,-4 -2,-8 0,-2 0,-3 0,-5 0,-2 1,-3 1,-5 1,-2 1,-4 2,-5 1,-2 2,-3 3,-5 1,-1 2,-3 4,-3 2,-1 3,-1 5,-2 1,0 3,0 4,0l0 6c-1,0 -1,0 -2,0 -1,0 -1,0 -2,1 -1,0 -1,1 -2,2 -1,1 -2,3 -3,5 -1,2 -1,4 -2,6 0,2 -1,4 -1,5 0,2 1,3 2,4 1,1 2,1 4,1 1,0 2,0 3,-1 1,0 2,-1 2,-2 1,-2 3,-5 4,-8 1,-3 2,-6 2,-9 0,-1 0,-3 -1,-4 -1,-1 -2,-2 -4,-2l0 -6c2,0 5,0 6,1 2,0 3,1 5,3 1,1 2,3 2,6 0,2 0,5 -1,8 -1,3 -1,6 -3,9 -1,3 -3,5 -4,6zm21 -29l1 -4 24 0 -2 6 -19 25 12 0c0,0 1,0 2,0 0,0 0,0 1,-1 0,0 0,0 0,-1l-2 7c0,0 0,1 -1,1 0,0 -1,0 -2,0l-21 0c-1,0 -2,0 -2,0 0,0 -1,-1 -1,-1l2 -5 20 -25 -11 0c-1,0 -1,0 -2,0 0,0 0,0 0,0 0,0 0,0 0,0 0,0 0,0 0,0zm38 -4l12 0c0,0 1,0 1,1 0,0 0,1 0,1l1 34c0,1 0,1 0,1 0,0 0,0 0,0 0,0 0,0 0,0l-8 0c0,0 -1,0 -1,0 0,0 0,-1 0,-1l0 -8 -13 0 3 -6 9 0 0 -15 -15 27c0,0 0,1 0,1 0,0 0,1 0,1 0,0 1,0 1,1l-8 0c0,0 -1,0 -1,0 0,0 0,0 -1,0 0,0 0,0 0,0 0,0 0,-1 0,-1 0,0 0,0 0,-1 0,0 0,0 0,0l19 -33c0,0 0,0 0,-1 0,0 0,0 0,-1 0,0 0,0 0,0 0,0 0,0 0,0zm28 1c0,0 -1,0 -1,-1l19 0c2,0 4,1 5,2 1,1 2,3 2,5 0,2 0,4 -1,6 -1,2 -1,4 -2,5 -1,1 -2,2 -3,2 -1,0 -2,1 -4,1l3 8c0,0 0,1 1,1 0,0 0,0 0,0 0,0 0,0 1,0l2 0 -1 5c0,0 0,1 -1,1 0,0 -1,0 -1,0l-6 0c-1,0 -1,0 -1,0 0,0 -1,-1 -1,-1l-4 -15 -3 0 1 -6 6 0c1,0 2,0 3,-1 1,0 2,-1 2,-2 0,-1 1,-2 1,-3 0,-1 0,-2 -1,-3 0,0 -1,-1 -2,-1l-6 0 -7 30c0,0 0,1 0,1 0,0 0,0 0,0 0,0 0,0 0,0 0,0 0,0 0,0l-9 0c0,0 -1,0 -1,0 0,0 0,-1 0,-1l8 -33c0,0 0,0 0,-1 0,0 0,0 0,0 0,0 0,-1 0,-1zm41 -1l12 0c0,0 1,0 1,1 0,0 0,1 0,1l1 34c0,1 0,1 0,1 0,0 0,0 0,0 0,0 0,0 0,0l-8 0c0,0 -1,0 -1,0 0,0 0,-1 0,-1l0 -8 -13 0 3 -6 9 0 0 -15 -15 27c0,0 0,1 0,1 0,0 0,1 0,1 0,0 1,0 1,1l-8 0c0,0 -1,0 -1,0 0,0 0,0 -1,0 0,0 0,0 0,0 0,0 0,-1 0,-1 0,0 0,0 0,-1 0,0 0,0 0,0l19 -33c0,0 0,0 0,-1 0,0 0,0 0,-1 0,0 0,0 0,0 0,0 0,0 0,0zm50 0c0,1 0,2 -1,3 0,1 0,2 0,2 0,0 0,1 -1,1 0,0 -1,0 -2,0l-7 0c-1,0 -1,0 -2,0 0,0 -1,0 -1,1 -1,1 -1,2 -2,4 -1,2 -1,4 -2,6 -1,2 -1,5 -1,7 0,2 0,4 0,5 0,1 0,1 1,1 1,0 1,0 2,0l10 0c0,0 1,0 2,-1 1,0 1,-1 1,-2l1 0 -1 7c0,0 0,0 0,1 0,0 0,0 -1,1 -1,1 -1,1 -2,1l-14 0c-1,0 -3,0 -4,-1 -1,0 -2,-1 -3,-2 0,0 0,-1 0,-2 0,-2 0,-6 1,-11 1,-5 2,-9 3,-13 1,-4 3,-7 4,-8 1,0 1,-1 3,-1 1,0 2,0 4,0l14 0z"/>
  <path fill="#FEFEFE" fill-rule="nonzero" d="M706 182l38 0c1,0 2,1 3,2 1,1 1,2 1,3l4 112c0,2 0,3 1,4 0,0 0,0 1,1 1,0 1,1 1,1l-26 0c-1,0 -2,-1 -3,-2 -1,-1 -1,-2 -1,-3l0 -26 -40 0 11 -20 28 0 -1 -48 -49 89c0,1 -1,3 -1,4 0,1 0,3 1,4 0,1 2,2 4,2l-24 0c-1,0 -2,0 -2,0 -1,0 -1,0 -2,-1 0,0 -1,-1 -1,-1 0,-1 -1,-2 -1,-2 0,-1 0,-1 1,-2 0,-1 1,-1 1,-2l60 -107c0,-1 0,-1 0,-2 0,-1 0,-2 0,-2 0,-1 -1,-1 -1,-2 -1,-1 -1,-1 -2,-1zm85 2c-1,-1 -2,-2 -3,-2l27 0c1,0 2,1 3,2 0,2 1,3 1,4l-18 82c0,2 -1,4 -1,5 0,2 0,3 1,4 1,2 2,3 5,4 3,1 6,1 9,1 3,0 6,0 9,-1 3,-1 5,-2 6,-3 1,-1 2,-2 2,-3 0,-1 1,-2 1,-4l19 -87c0,-1 0,-2 -1,-4 0,0 -1,-1 -1,-1 -1,0 -1,-1 -2,-1l27 0c0,0 1,0 2,1 1,0 1,1 1,1 1,2 1,3 1,4l-21 93c-1,4 -2,7 -3,9 -1,2 -2,3 -2,4 -1,1 -2,2 -4,3 -2,2 -5,3 -9,5 -4,1 -8,2 -12,2 -5,0 -9,1 -14,1 -2,0 -4,0 -7,0 -3,0 -5,0 -7,0 -7,0 -12,-1 -17,-2 -4,-2 -8,-5 -10,-9 -1,-3 -2,-6 -2,-9 0,-3 1,-7 2,-13l19 -83c0,-1 0,-1 0,-2 0,-1 0,-2 -1,-2zm96 22c0,1 -1,1 -2,2l4 -19c0,-1 1,-2 2,-3 1,0 2,-1 3,-1l73 0c3,0 5,0 6,-1 0,0 1,0 1,-1 1,-1 1,-1 1,-1l1 0 -4 19c-1,2 -2,3 -2,3 -1,1 -3,1 -4,1l-26 0 -21 95c0,0 0,1 0,2 0,1 0,1 0,1 0,0 1,1 2,1 1,0 2,1 2,1l-28 0c0,0 -1,0 -1,-1 -1,-1 -1,-1 -1,-1 -1,0 -1,-1 -1,-3l22 -95 -23 0c-2,0 -3,0 -4,1zm172 85c-6,5 -12,8 -19,10 -7,2 -14,3 -21,3 -8,0 -15,-1 -21,-4 -6,-2 -11,-6 -13,-9 -3,-5 -5,-14 -5,-25 0,-5 0,-11 1,-16 1,-6 2,-11 4,-17 2,-6 4,-12 7,-17 3,-6 6,-11 9,-15 4,-5 8,-9 13,-11 5,-3 10,-4 15,-5 5,-1 9,-1 13,-1l0 21c-2,0 -5,0 -7,0 -2,0 -4,1 -6,2 -2,1 -4,3 -6,6 -3,4 -6,10 -8,17 -2,7 -4,14 -6,21 -1,7 -2,13 -2,17 0,6 2,10 5,13 3,3 8,4 12,4 4,0 7,-1 10,-2 3,-1 5,-3 7,-5 4,-6 8,-15 12,-26 3,-11 5,-21 5,-29 0,-5 -1,-9 -2,-12 -2,-4 -6,-6 -14,-6l0 -21c8,0 15,1 20,2 6,1 10,4 15,9 4,5 7,11 7,20 0,8 -1,17 -3,27 -2,10 -5,20 -8,30 -4,9 -8,16 -13,20z"/>
  <path fill="#FEFEFE" fill-rule="nonzero" d="M550 184c-1,-1 -3,-2 -4,-2l28 0c2,0 3,1 4,2 0,1 0,2 0,4l-22 93 52 0c2,0 3,-1 4,-1 0,0 1,0 2,-1 0,0 1,-1 2,-1 1,-1 1,-1 1,-2l-9 22c0,1 -1,2 -3,3 0,0 0,0 -1,1 0,0 -1,1 -1,1 0,0 -1,0 -1,0 0,0 -1,0 -3,0l-43 0c0,0 1,0 1,0l-28 0c-2,0 -3,-1 -4,-2 0,0 0,0 -1,-1 0,0 -1,-1 -1,-1 0,0 0,-1 0,-1 0,0 0,-1 0,-3l25 -109c0,-1 0,-2 0,-2 0,-1 0,-2 -1,-2zm-220 0c-1,-1 -2,-2 -4,-2l61 0c8,0 13,2 17,6 3,3 5,9 5,17 0,6 -1,13 -3,20 -2,7 -4,13 -6,16 -2,3 -5,6 -9,8 -4,2 -8,3 -13,3l9 28c1,1 1,2 2,3 0,0 1,0 1,1 1,1 1,1 2,1l6 0 -4 16c0,1 -1,2 -2,3 -1,0 -3,1 -4,1l-18 0c-2,0 -3,0 -5,-1 -1,-1 -2,-2 -3,-4l-12 -48 -11 0 4 -19 19 0c3,0 6,-1 8,-2 3,-1 5,-4 7,-7 2,-4 2,-7 2,-11 0,-4 -1,-7 -3,-9 -2,-1 -4,-2 -8,-2l-19 0 -22 98c0,1 0,2 1,4 0,0 0,1 1,1 0,0 1,0 1,1 1,0 1,0 2,1l-28 0c-1,0 -2,0 -4,-1 -1,-1 -1,-2 -1,-4l25 -108c0,-1 0,-2 0,-2 0,-1 0,-1 0,-2 0,-1 0,-2 -1,-2zm130 -2l38 0c1,0 2,1 3,2 1,1 1,2 1,3l4 112c0,2 0,3 1,4 0,0 0,0 1,1 1,0 1,1 1,1l-26 0c-1,0 -2,-1 -3,-2 -1,-1 -1,-2 -1,-3l0 -26 -40 0 11 -20 28 0 -1 -48 -49 89c0,1 -1,3 -1,4 0,1 0,3 1,4 0,1 2,2 4,2l-24 0c-1,0 -2,0 -2,0 -1,0 -1,0 -2,-1 0,0 -1,-1 -1,-1 0,-1 -1,-2 -1,-2 0,-1 0,-1 1,-2 0,-1 1,-1 1,-2l60 -107c0,-1 0,-1 0,-2 0,-1 0,-2 0,-2 0,-1 -1,-1 -1,-2 -1,-1 -1,-1 -2,-1z"/>
 </g>
</svg>
