<?xml version="1.0" standalone="no"?>
<!DOCTYPE svg PUBLIC "-//W3C//DTD SVG 20010904//EN"
 "http://www.w3.org/TR/2001/REC-SVG-20010904/DTD/svg10.dtd">
<svg version="1.0" xmlns="http://www.w3.org/2000/svg"
 width="350.000000pt" height="350.000000pt" viewBox="0 0 350.000000 350.000000"
 preserveAspectRatio="xMidYMid meet">
<metadata>
Created by potrace 1.11, written by Peter Selinger 2001-2013
</metadata>
<g transform="translate(0.000000,350.000000) scale(0.100000,-0.100000)"
fill="#000000" stroke="none">
<path d="M721 3083 c-18 -87 -34 -165 -36 -173 -32 -152 -88 -421 -91 -440 -2
-14 -11 -56 -20 -95 -9 -38 -18 -81 -20 -95 -3 -14 -7 -34 -9 -45 -2 -11 -8
-40 -14 -65 -5 -25 -13 -60 -16 -79 -3 -19 -7 -37 -9 -40 -2 -3 -7 -24 -10
-46 -4 -22 -18 -96 -32 -165 l-26 -125 -166 -250 c-91 -137 -189 -287 -218
-332 l-54 -82 810 -406 810 -405 125 0 126 0 815 406 815 406 -17 27 c-10 14
-109 163 -220 331 -131 197 -205 317 -209 340 -3 19 -17 89 -31 155 -23 105
-85 406 -114 550 -6 28 -13 63 -16 78 -2 16 -13 66 -23 110 -11 45 -22 98 -25
117 -3 19 -15 76 -25 125 -11 50 -32 150 -47 223 -15 72 -30 132 -33 132 -3
-1 -38 -44 -77 -98 -39 -53 -133 -180 -208 -282 -75 -102 -144 -196 -154 -209
-9 -13 -87 -119 -173 -235 l-156 -211 -221 -3 -220 -2 -261 352 c-143 194
-316 428 -383 520 -68 92 -126 167 -129 168 -3 0 -20 -71 -38 -157z"/>
</g>
</svg>
